<svg width="320" height="482" viewBox="0 0 320 482" fill="none" xmlns="http://www.w3.org/2000/svg">
<path d="M320 0H285V35H320V0Z" fill="#F7A534"/>
<path d="M300.624 28.8799H320V6.12019H300.624C294.339 6.12019 289.244 11.2151 289.244 17.5C289.244 23.7849 294.339 28.8799 300.624 28.8799Z" fill="#022E30"/>
<path d="M300.624 25.1982H320V9.80188H300.624C296.372 9.80188 292.926 13.2484 292.926 17.5C292.926 21.7516 296.372 25.1982 300.624 25.1982Z" fill="#F7A534"/>
<path d="M301.141 23.0373H320V11.9628H301.141C298.083 11.9628 295.604 14.4419 295.604 17.5C295.604 20.5581 298.083 23.0373 301.141 23.0373Z" fill="white"/>
<path d="M300 45H21.5076V79.375H300V45Z" fill="#003F3F" stroke="#003F3F" stroke-width="0.75" stroke-miterlimit="10"/>
<path d="M300 79.375H21.5076V155H300V79.375Z" stroke="#F7A534" stroke-miterlimit="10"/>
<path d="M69.6637 120.187V111.787H73.4797C76.2277 111.787 78.1117 113.443 78.1117 115.987C78.1117 118.531 76.2277 120.187 73.4797 120.187H69.6637ZM71.6077 118.591H73.3837C75.0517 118.591 76.1437 117.595 76.1437 115.987C76.1437 114.379 75.0517 113.383 73.3837 113.383H71.6077V118.591ZM85.7697 116.983C85.7697 117.127 85.7457 117.331 85.7337 117.487H80.8497C81.0297 118.291 81.7137 118.783 82.6977 118.783C83.3817 118.783 83.8737 118.579 84.3177 118.159L85.3137 119.239C84.7137 119.923 83.8137 120.283 82.6497 120.283C80.4177 120.283 78.9657 118.879 78.9657 116.959C78.9657 115.027 80.4417 113.635 82.4097 113.635C84.3057 113.635 85.7697 114.907 85.7697 116.983ZM82.4217 115.051C81.5697 115.051 80.9577 115.567 80.8257 116.395H84.0057C83.8737 115.579 83.2617 115.051 82.4217 115.051ZM89.6345 111.787H93.2585V120.187H91.3145V113.347H89.6345V111.787ZM97.5977 114.943C100.082 114.943 101.066 116.059 101.066 117.547C101.066 119.035 99.9737 120.331 97.5737 120.331C96.4097 120.331 95.1857 120.007 94.3697 119.431L95.1377 117.943C95.7737 118.423 96.6497 118.699 97.5257 118.699C98.4977 118.699 99.0977 118.291 99.0977 117.607C99.0977 116.947 98.6657 116.515 97.1417 116.515H94.9937L95.4257 111.787H100.55V113.347H97.0457L96.9137 114.943H97.5977ZM108.253 113.635C110.221 113.635 111.361 114.547 111.361 116.503V120.187H109.609V119.383C109.261 119.971 108.589 120.283 107.641 120.283C106.129 120.283 105.229 119.443 105.229 118.327C105.229 117.187 106.033 116.395 108.001 116.395H109.489C109.489 115.591 109.009 115.123 108.001 115.123C107.317 115.123 106.609 115.351 106.141 115.723L105.469 114.415C106.177 113.911 107.221 113.635 108.253 113.635ZM108.109 119.023C108.733 119.023 109.273 118.735 109.489 118.147V117.487H108.205C107.329 117.487 107.053 117.811 107.053 118.243C107.053 118.711 107.449 119.023 108.109 119.023ZM119.982 115.207C121.494 115.447 122.262 116.383 122.262 117.619C122.262 119.035 121.17 120.331 118.782 120.331C117.606 120.331 116.394 120.007 115.578 119.431L116.334 117.943C116.97 118.423 117.858 118.699 118.734 118.699C119.706 118.699 120.306 118.303 120.306 117.619C120.306 116.983 119.838 116.587 118.734 116.587H117.846V115.303L119.574 113.347H115.998V111.787H121.878V113.047L119.982 115.207ZM126.759 120.331C124.695 120.331 123.159 118.759 123.159 115.987C123.159 113.215 124.695 111.643 126.759 111.643C128.835 111.643 130.359 113.215 130.359 115.987C130.359 118.759 128.835 120.331 126.759 120.331ZM126.759 118.687C127.731 118.687 128.403 117.895 128.403 115.987C128.403 114.079 127.731 113.287 126.759 113.287C125.799 113.287 125.127 114.079 125.127 115.987C125.127 117.895 125.799 118.687 126.759 118.687ZM139.802 111.283H141.674V120.187H139.886V119.443C139.418 120.007 138.734 120.283 137.87 120.283C136.046 120.283 134.642 118.987 134.642 116.959C134.642 114.931 136.046 113.635 137.87 113.635C138.662 113.635 139.334 113.887 139.802 114.415V111.283ZM138.194 118.747C139.118 118.747 139.838 118.075 139.838 116.959C139.838 115.843 139.118 115.171 138.194 115.171C137.258 115.171 136.538 115.843 136.538 116.959C136.538 118.075 137.258 118.747 138.194 118.747ZM149.731 116.983C149.731 117.127 149.707 117.331 149.695 117.487H144.811C144.991 118.291 145.675 118.783 146.659 118.783C147.343 118.783 147.835 118.579 148.279 118.159L149.275 119.239C148.675 119.923 147.775 120.283 146.611 120.283C144.379 120.283 142.927 118.879 142.927 116.959C142.927 115.027 144.403 113.635 146.371 113.635C148.267 113.635 149.731 114.907 149.731 116.983ZM146.383 115.051C145.531 115.051 144.919 115.567 144.787 116.395H147.967C147.835 115.579 147.223 115.051 146.383 115.051ZM162.643 113.635C164.179 113.635 165.283 114.523 165.283 116.491V120.187H163.411V116.779C163.411 115.735 162.943 115.255 162.187 115.255C161.347 115.255 160.759 115.795 160.759 116.947V120.187H158.887V116.779C158.887 115.735 158.443 115.255 157.663 115.255C156.835 115.255 156.247 115.795 156.247 116.947V120.187H154.375V113.731H156.163V114.475C156.643 113.923 157.363 113.635 158.191 113.635C159.091 113.635 159.859 113.983 160.315 114.691C160.831 114.031 161.671 113.635 162.643 113.635ZM169.565 113.635C171.533 113.635 172.673 114.547 172.673 116.503V120.187H170.921V119.383C170.573 119.971 169.901 120.283 168.953 120.283C167.441 120.283 166.541 119.443 166.541 118.327C166.541 117.187 167.345 116.395 169.313 116.395H170.801C170.801 115.591 170.321 115.123 169.313 115.123C168.629 115.123 167.921 115.351 167.453 115.723L166.781 114.415C167.489 113.911 168.533 113.635 169.565 113.635ZM169.421 119.023C170.045 119.023 170.585 118.735 170.801 118.147V117.487H169.517C168.641 117.487 168.365 117.811 168.365 118.243C168.365 118.711 168.761 119.023 169.421 119.023ZM176.156 114.583C176.612 113.959 177.38 113.635 178.376 113.635V115.363C178.22 115.351 178.1 115.339 177.956 115.339C176.924 115.339 176.24 115.903 176.24 117.139V120.187H174.368V113.731H176.156V114.583ZM182.538 118.747C183.126 118.747 183.642 118.483 183.99 117.859L185.442 118.651C184.998 119.647 183.99 120.235 182.706 120.283L182.586 120.787C183.318 120.871 183.63 121.291 183.63 121.783C183.63 122.515 182.934 122.971 181.866 122.971C181.446 122.971 181.026 122.875 180.75 122.719L181.038 121.915C181.266 122.023 181.53 122.095 181.818 122.095C182.262 122.095 182.442 121.939 182.442 121.711C182.442 121.507 182.274 121.363 181.854 121.363H181.446L181.734 120.211C180.066 119.899 178.95 118.639 178.95 116.959C178.95 115.015 180.45 113.635 182.55 113.635C183.906 113.635 184.974 114.223 185.442 115.279L183.99 116.059C183.642 115.447 183.126 115.171 182.538 115.171C181.59 115.171 180.846 115.831 180.846 116.959C180.846 118.087 181.59 118.747 182.538 118.747ZM189.51 120.283C187.458 120.283 185.958 118.903 185.958 116.959C185.958 115.015 187.458 113.635 189.51 113.635C191.562 113.635 193.05 115.015 193.05 116.959C193.05 118.903 191.562 120.283 189.51 120.283ZM189.51 118.747C190.446 118.747 191.154 118.075 191.154 116.959C191.154 115.843 190.446 115.171 189.51 115.171C188.574 115.171 187.854 115.843 187.854 116.959C187.854 118.075 188.574 118.747 189.51 118.747ZM202.404 111.283H204.276V120.187H202.488V119.443C202.02 120.007 201.336 120.283 200.472 120.283C198.648 120.283 197.244 118.987 197.244 116.959C197.244 114.931 198.648 113.635 200.472 113.635C201.264 113.635 201.936 113.887 202.404 114.415V111.283ZM200.796 118.747C201.72 118.747 202.44 118.075 202.44 116.959C202.44 115.843 201.72 115.171 200.796 115.171C199.86 115.171 199.14 115.843 199.14 116.959C199.14 118.075 199.86 118.747 200.796 118.747ZM212.332 116.983C212.332 117.127 212.308 117.331 212.296 117.487H207.412C207.592 118.291 208.276 118.783 209.26 118.783C209.944 118.783 210.436 118.579 210.88 118.159L211.876 119.239C211.276 119.923 210.376 120.283 209.212 120.283C206.98 120.283 205.528 118.879 205.528 116.959C205.528 115.027 207.004 113.635 208.972 113.635C210.868 113.635 212.332 114.907 212.332 116.983ZM208.984 115.051C208.132 115.051 207.52 115.567 207.388 116.395H210.568C210.436 115.579 209.824 115.051 208.984 115.051ZM219.245 118.603H222.857V120.187H216.509V118.927L219.749 115.867C220.493 115.159 220.625 114.727 220.625 114.319C220.625 113.659 220.169 113.275 219.281 113.275C218.561 113.275 217.949 113.551 217.541 114.115L216.125 113.203C216.773 112.255 217.949 111.643 219.461 111.643C221.333 111.643 222.581 112.603 222.581 114.127C222.581 114.943 222.353 115.687 221.177 116.779L219.245 118.603ZM227.236 120.331C225.172 120.331 223.636 118.759 223.636 115.987C223.636 113.215 225.172 111.643 227.236 111.643C229.312 111.643 230.836 113.215 230.836 115.987C230.836 118.759 229.312 120.331 227.236 120.331ZM227.236 118.687C228.208 118.687 228.88 117.895 228.88 115.987C228.88 114.079 228.208 113.287 227.236 113.287C226.276 113.287 225.604 114.079 225.604 115.987C225.604 117.895 226.276 118.687 227.236 118.687ZM234.374 118.603H237.986V120.187H231.638V118.927L234.878 115.867C235.622 115.159 235.754 114.727 235.754 114.319C235.754 113.659 235.298 113.275 234.41 113.275C233.69 113.275 233.078 113.551 232.67 114.115L231.254 113.203C231.902 112.255 233.078 111.643 234.59 111.643C236.462 111.643 237.71 112.603 237.71 114.127C237.71 114.943 237.482 115.687 236.306 116.779L234.374 118.603ZM246.363 116.839V118.423H244.995V120.187H243.099V118.423H238.575V117.115L242.535 111.787H244.575L240.903 116.839H243.159V115.267H244.995V116.839H246.363ZM248.283 120.283C247.635 120.283 247.119 119.791 247.119 119.107C247.119 118.411 247.635 117.955 248.283 117.955C248.931 117.955 249.447 118.411 249.447 119.107C249.447 119.791 248.931 120.283 248.283 120.283Z" fill="#003F3F"/>
<path d="M84.793 64.644C82.189 64.644 80.245 62.832 80.245 60.3C80.245 57.768 82.189 55.956 84.805 55.956C86.257 55.956 87.469 56.484 88.261 57.444L87.013 58.596C86.449 57.948 85.741 57.612 84.901 57.612C83.329 57.612 82.213 58.716 82.213 60.3C82.213 61.884 83.329 62.988 84.901 62.988C85.741 62.988 86.449 62.652 87.013 61.992L88.261 63.144C87.469 64.116 86.257 64.644 84.793 64.644ZM93.9097 58.044H95.7817V64.5H94.0057V63.732C93.5137 64.296 92.7937 64.596 92.0017 64.596C90.3817 64.596 89.2417 63.684 89.2417 61.692V58.044H91.1137V61.416C91.1137 62.496 91.5937 62.976 92.4217 62.976C93.2857 62.976 93.9097 62.424 93.9097 61.236V58.044ZM99.304 58.896C99.76 58.272 100.528 57.948 101.524 57.948V59.676C101.368 59.664 101.248 59.652 101.104 59.652C100.072 59.652 99.388 60.216 99.388 61.452V64.5H97.516V58.044H99.304V58.896ZM104.833 64.596C103.741 64.596 102.637 64.296 102.037 63.9L102.661 62.556C103.237 62.928 104.113 63.18 104.905 63.18C105.769 63.18 106.093 62.952 106.093 62.592C106.093 61.536 102.193 62.616 102.193 60.036C102.193 58.812 103.297 57.948 105.181 57.948C106.069 57.948 107.053 58.152 107.665 58.512L107.041 59.844C106.405 59.484 105.769 59.364 105.181 59.364C104.341 59.364 103.981 59.628 103.981 59.964C103.981 61.068 107.881 60 107.881 62.544C107.881 63.744 106.765 64.596 104.833 64.596ZM112.108 64.596C110.056 64.596 108.556 63.216 108.556 61.272C108.556 59.328 110.056 57.948 112.108 57.948C114.16 57.948 115.648 59.328 115.648 61.272C115.648 63.216 114.16 64.596 112.108 64.596ZM112.108 63.06C113.044 63.06 113.752 62.388 113.752 61.272C113.752 60.156 113.044 59.484 112.108 59.484C111.172 59.484 110.452 60.156 110.452 61.272C110.452 62.388 111.172 63.06 112.108 63.06ZM119.071 64.596C117.979 64.596 116.875 64.296 116.275 63.9L116.899 62.556C117.475 62.928 118.351 63.18 119.143 63.18C120.007 63.18 120.331 62.952 120.331 62.592C120.331 61.536 116.431 62.616 116.431 60.036C116.431 58.812 117.535 57.948 119.419 57.948C120.307 57.948 121.291 58.152 121.903 58.512L121.279 59.844C120.643 59.484 120.007 59.364 119.419 59.364C118.579 59.364 118.219 59.628 118.219 59.964C118.219 61.068 122.119 60 122.119 62.544C122.119 63.744 121.003 64.596 119.071 64.596ZM132.996 61.296C132.996 61.44 132.972 61.644 132.96 61.8H128.076C128.256 62.604 128.94 63.096 129.924 63.096C130.608 63.096 131.1 62.892 131.544 62.472L132.54 63.552C131.94 64.236 131.04 64.596 129.876 64.596C127.644 64.596 126.192 63.192 126.192 61.272C126.192 59.34 127.668 57.948 129.636 57.948C131.532 57.948 132.996 59.22 132.996 61.296ZM129.648 59.364C128.796 59.364 128.184 59.88 128.052 60.708H131.232C131.1 59.892 130.488 59.364 129.648 59.364ZM141.841 64.644C139.189 64.644 137.245 62.796 137.245 60.3C137.245 57.804 139.189 55.956 141.841 55.956C144.481 55.956 146.437 57.792 146.437 60.3C146.437 62.808 144.481 64.644 141.841 64.644ZM141.841 62.988C143.341 62.988 144.469 61.896 144.469 60.3C144.469 58.704 143.341 57.612 141.841 57.612C140.341 57.612 139.213 58.704 139.213 60.3C139.213 61.896 140.341 62.988 141.841 62.988ZM154.365 57.144C153.669 57.144 153.201 56.688 153.201 56.1C153.201 55.512 153.669 55.056 154.365 55.056C155.061 55.056 155.529 55.488 155.529 56.064C155.529 56.688 155.061 57.144 154.365 57.144ZM150.729 56.976C150.177 56.976 149.877 57.276 149.877 57.912V58.188H151.533V59.628H149.925V64.5H148.053V59.628H147.057V58.188H148.053V57.9C148.053 56.448 148.941 55.5 150.549 55.5C151.077 55.5 151.629 55.608 151.977 55.848L151.485 57.204C151.281 57.06 151.017 56.976 150.729 56.976ZM153.429 64.5V58.044H155.301V64.5H153.429ZM160.156 64.596C158.056 64.596 156.556 63.216 156.556 61.272C156.556 59.328 158.056 57.948 160.156 57.948C161.512 57.948 162.58 58.536 163.048 59.592L161.596 60.372C161.248 59.76 160.732 59.484 160.144 59.484C159.196 59.484 158.452 60.144 158.452 61.272C158.452 62.4 159.196 63.06 160.144 63.06C160.732 63.06 161.248 62.796 161.596 62.172L163.048 62.964C162.58 63.996 161.512 64.596 160.156 64.596ZM165.061 57.144C164.365 57.144 163.897 56.688 163.897 56.1C163.897 55.512 164.365 55.056 165.061 55.056C165.757 55.056 166.225 55.488 166.225 56.064C166.225 56.688 165.757 57.144 165.061 57.144ZM164.125 64.5V58.044H165.997V64.5H164.125ZM171.659 57.948C173.183 57.948 174.335 58.836 174.335 60.804V64.5H172.463V61.092C172.463 60.048 171.983 59.568 171.155 59.568C170.255 59.568 169.607 60.12 169.607 61.308V64.5H167.735V58.044H169.523V58.8C170.027 58.248 170.783 57.948 171.659 57.948ZM178.636 57.948C180.604 57.948 181.744 58.86 181.744 60.816V64.5H179.992V63.696C179.644 64.284 178.972 64.596 178.024 64.596C176.512 64.596 175.612 63.756 175.612 62.64C175.612 61.5 176.416 60.708 178.384 60.708H179.872C179.872 59.904 179.392 59.436 178.384 59.436C177.7 59.436 176.992 59.664 176.524 60.036L175.852 58.728C176.56 58.224 177.604 57.948 178.636 57.948ZM178.492 63.336C179.116 63.336 179.656 63.048 179.872 62.46V61.8H178.588C177.712 61.8 177.436 62.124 177.436 62.556C177.436 63.024 177.832 63.336 178.492 63.336ZM185.61 64.596C184.518 64.596 183.414 64.296 182.814 63.9L183.438 62.556C184.014 62.928 184.89 63.18 185.682 63.18C186.546 63.18 186.87 62.952 186.87 62.592C186.87 61.536 182.97 62.616 182.97 60.036C182.97 58.812 184.074 57.948 185.958 57.948C186.846 57.948 187.83 58.152 188.442 58.512L187.818 59.844C187.182 59.484 186.546 59.364 185.958 59.364C185.118 59.364 184.758 59.628 184.758 59.964C184.758 61.068 188.658 60 188.658 62.544C188.658 63.744 187.542 64.596 185.61 64.596ZM197.915 55.596H199.787V64.5H197.999V63.756C197.531 64.32 196.847 64.596 195.983 64.596C194.159 64.596 192.755 63.3 192.755 61.272C192.755 59.244 194.159 57.948 195.983 57.948C196.775 57.948 197.447 58.2 197.915 58.728V55.596ZM196.307 63.06C197.231 63.06 197.951 62.388 197.951 61.272C197.951 60.156 197.231 59.484 196.307 59.484C195.371 59.484 194.651 60.156 194.651 61.272C194.651 62.388 195.371 63.06 196.307 63.06ZM207.844 61.296C207.844 61.44 207.82 61.644 207.808 61.8H202.924C203.104 62.604 203.788 63.096 204.772 63.096C205.456 63.096 205.948 62.892 206.392 62.472L207.388 63.552C206.788 64.236 205.888 64.596 204.724 64.596C202.492 64.596 201.04 63.192 201.04 61.272C201.04 59.34 202.516 57.948 204.484 57.948C206.38 57.948 207.844 59.22 207.844 61.296ZM204.496 59.364C203.644 59.364 203.032 59.88 202.9 60.708H206.08C205.948 59.892 205.336 59.364 204.496 59.364ZM218.897 64.5L218.153 62.7H214.253L213.509 64.5H211.517L215.261 56.1H217.181L220.937 64.5H218.897ZM214.877 61.224H217.541L216.209 58.008L214.877 61.224ZM223.464 58.896C223.92 58.272 224.688 57.948 225.684 57.948V59.676C225.528 59.664 225.408 59.652 225.264 59.652C224.232 59.652 223.548 60.216 223.548 61.452V64.5H221.676V58.044H223.464V58.896ZM230.68 62.868L231.184 64.188C230.8 64.464 230.236 64.596 229.66 64.596C228.136 64.596 227.248 63.816 227.248 62.28V59.628H226.252V58.188H227.248V56.616H229.12V58.188H230.728V59.628H229.12V62.256C229.12 62.808 229.42 63.108 229.924 63.108C230.2 63.108 230.476 63.024 230.68 62.868ZM238.36 61.296C238.36 61.44 238.336 61.644 238.324 61.8H233.44C233.62 62.604 234.304 63.096 235.288 63.096C235.972 63.096 236.464 62.892 236.908 62.472L237.904 63.552C237.304 64.236 236.404 64.596 235.24 64.596C233.008 64.596 231.556 63.192 231.556 61.272C231.556 59.34 233.032 57.948 235 57.948C236.896 57.948 238.36 59.22 238.36 61.296ZM235.012 59.364C234.16 59.364 233.548 59.88 233.416 60.708H236.596C236.464 59.892 235.852 59.364 235.012 59.364Z" fill="#F7A534"/>
<path d="M300 327H21.5076V361.161H300V327Z" fill="#003F3F" stroke="#003F3F" stroke-miterlimit="10"/>
<path d="M300 361.845H21.5076V437H300V361.845Z" stroke="#F7A534" stroke-miterlimit="10"/>
<path d="M104.345 399.758V389.958H108.797C112.003 389.958 114.201 391.89 114.201 394.858C114.201 397.826 112.003 399.758 108.797 399.758H104.345ZM106.613 397.896H108.685C110.631 397.896 111.905 396.734 111.905 394.858C111.905 392.982 110.631 391.82 108.685 391.82H106.613V397.896ZM123.136 396.02C123.136 396.188 123.108 396.426 123.094 396.608H117.396C117.606 397.546 118.404 398.12 119.552 398.12C120.35 398.12 120.924 397.882 121.442 397.392L122.604 398.652C121.904 399.45 120.854 399.87 119.496 399.87C116.892 399.87 115.198 398.232 115.198 395.992C115.198 393.738 116.92 392.114 119.216 392.114C121.428 392.114 123.136 393.598 123.136 396.02ZM119.23 393.766C118.236 393.766 117.522 394.368 117.368 395.334H121.078C120.924 394.382 120.21 393.766 119.23 393.766ZM132.671 393.948C134.435 394.228 135.331 395.32 135.331 396.762C135.331 398.414 134.057 399.926 131.271 399.926C129.899 399.926 128.485 399.548 127.533 398.876L128.415 397.14C129.157 397.7 130.193 398.022 131.215 398.022C132.349 398.022 133.049 397.56 133.049 396.762C133.049 396.02 132.503 395.558 131.215 395.558H130.179V394.06L132.195 391.778H128.023V389.958H134.883V391.428L132.671 393.948ZM143.843 392.114C146.139 392.114 147.469 393.178 147.469 395.46V399.758H145.425V398.82C145.019 399.506 144.235 399.87 143.129 399.87C141.365 399.87 140.315 398.89 140.315 397.588C140.315 396.258 141.253 395.334 143.549 395.334H145.285C145.285 394.396 144.725 393.85 143.549 393.85C142.751 393.85 141.925 394.116 141.379 394.55L140.595 393.024C141.421 392.436 142.639 392.114 143.843 392.114ZM143.675 398.4C144.403 398.4 145.033 398.064 145.285 397.378V396.608H143.787C142.765 396.608 142.443 396.986 142.443 397.49C142.443 398.036 142.905 398.4 143.675 398.4ZM152.766 389.958H160.62V391.428L156.98 399.758H154.516L158.03 391.806H154.782V393.402H152.766V389.958ZM171.545 389.37H173.729V399.758H171.643V398.89C171.097 399.548 170.299 399.87 169.291 399.87C167.163 399.87 165.525 398.358 165.525 395.992C165.525 393.626 167.163 392.114 169.291 392.114C170.215 392.114 170.999 392.408 171.545 393.024V389.37ZM169.669 398.078C170.747 398.078 171.587 397.294 171.587 395.992C171.587 394.69 170.747 393.906 169.669 393.906C168.577 393.906 167.737 394.69 167.737 395.992C167.737 397.294 168.577 398.078 169.669 398.078ZM183.128 396.02C183.128 396.188 183.1 396.426 183.086 396.608H177.388C177.598 397.546 178.396 398.12 179.544 398.12C180.342 398.12 180.916 397.882 181.434 397.392L182.596 398.652C181.896 399.45 180.846 399.87 179.488 399.87C176.884 399.87 175.19 398.232 175.19 395.992C175.19 393.738 176.912 392.114 179.208 392.114C181.42 392.114 183.128 393.598 183.128 396.02ZM179.222 393.766C178.228 393.766 177.514 394.368 177.36 395.334H181.07C180.916 394.382 180.202 393.766 179.222 393.766ZM191.585 392.114C193.881 392.114 195.211 393.178 195.211 395.46V399.758H193.167V398.82C192.761 399.506 191.977 399.87 190.871 399.87C189.107 399.87 188.057 398.89 188.057 397.588C188.057 396.258 188.995 395.334 191.291 395.334H193.027C193.027 394.396 192.467 393.85 191.291 393.85C190.493 393.85 189.667 394.116 189.121 394.55L188.337 393.024C189.163 392.436 190.381 392.114 191.585 392.114ZM191.417 398.4C192.145 398.4 192.775 398.064 193.027 397.378V396.608H191.529C190.507 396.608 190.185 396.986 190.185 397.49C190.185 398.036 190.647 398.4 191.417 398.4ZM201.64 392.114C203.754 392.114 205.392 393.626 205.392 395.992C205.392 398.358 203.754 399.87 201.64 399.87C200.632 399.87 199.82 399.548 199.274 398.89V399.758H197.188V389.37H199.372V393.024C199.932 392.408 200.702 392.114 201.64 392.114ZM201.262 398.078C202.354 398.078 203.18 397.294 203.18 395.992C203.18 394.69 202.354 393.906 201.262 393.906C200.17 393.906 199.344 394.69 199.344 395.992C199.344 397.294 200.17 398.078 201.262 398.078ZM208.94 393.22C209.472 392.492 210.368 392.114 211.53 392.114V394.13C211.348 394.116 211.208 394.102 211.04 394.102C209.836 394.102 209.038 394.76 209.038 396.202V399.758H206.854V392.226H208.94V393.22ZM213.92 391.176C213.108 391.176 212.562 390.644 212.562 389.958C212.562 389.272 213.108 388.74 213.92 388.74C214.732 388.74 215.278 389.244 215.278 389.916C215.278 390.644 214.732 391.176 213.92 391.176ZM212.828 399.758V392.226H215.012V399.758H212.828ZM217.039 399.758V389.37H219.223V399.758H217.039ZM137.283 407.37H139.467V417.758H137.381V416.89C136.835 417.548 136.037 417.87 135.029 417.87C132.901 417.87 131.263 416.358 131.263 413.992C131.263 411.626 132.901 410.114 135.029 410.114C135.953 410.114 136.737 410.408 137.283 411.024V407.37ZM135.407 416.078C136.485 416.078 137.325 415.294 137.325 413.992C137.325 412.69 136.485 411.906 135.407 411.906C134.315 411.906 133.475 412.69 133.475 413.992C133.475 415.294 134.315 416.078 135.407 416.078ZM148.866 414.02C148.866 414.188 148.838 414.426 148.824 414.608H143.126C143.336 415.546 144.134 416.12 145.282 416.12C146.08 416.12 146.654 415.882 147.172 415.392L148.334 416.652C147.634 417.45 146.584 417.87 145.226 417.87C142.622 417.87 140.928 416.232 140.928 413.992C140.928 411.738 142.65 410.114 144.946 410.114C147.158 410.114 148.866 411.598 148.866 414.02ZM144.96 411.766C143.966 411.766 143.252 412.368 143.098 413.334H146.808C146.654 412.382 145.94 411.766 144.96 411.766ZM156.931 415.91H161.145V417.758H153.739V416.288L157.519 412.718C158.387 411.892 158.541 411.388 158.541 410.912C158.541 410.142 158.009 409.694 156.973 409.694C156.133 409.694 155.419 410.016 154.943 410.674L153.291 409.61C154.047 408.504 155.419 407.79 157.183 407.79C159.367 407.79 160.823 408.91 160.823 410.688C160.823 411.64 160.557 412.508 159.185 413.782L156.931 415.91ZM166.254 417.926C163.846 417.926 162.054 416.092 162.054 412.858C162.054 409.624 163.846 407.79 166.254 407.79C168.676 407.79 170.454 409.624 170.454 412.858C170.454 416.092 168.676 417.926 166.254 417.926ZM166.254 416.008C167.388 416.008 168.172 415.084 168.172 412.858C168.172 410.632 167.388 409.708 166.254 409.708C165.134 409.708 164.35 410.632 164.35 412.858C164.35 415.084 165.134 416.008 166.254 416.008ZM174.582 415.91H178.796V417.758H171.39V416.288L175.17 412.718C176.038 411.892 176.192 411.388 176.192 410.912C176.192 410.142 175.66 409.694 174.624 409.694C173.784 409.694 173.07 410.016 172.594 410.674L170.942 409.61C171.698 408.504 173.07 407.79 174.834 407.79C177.018 407.79 178.474 408.91 178.474 410.688C178.474 411.64 178.208 412.508 176.836 413.782L174.582 415.91ZM188.569 413.852V415.7H186.973V417.758H184.761V415.7H179.483V414.174L184.103 407.958H186.483L182.199 413.852H184.831V412.018H186.973V413.852H188.569ZM190.808 417.87C190.052 417.87 189.45 417.296 189.45 416.498C189.45 415.686 190.052 415.154 190.808 415.154C191.564 415.154 192.166 415.686 192.166 416.498C192.166 417.296 191.564 417.87 190.808 417.87Z" fill="#003F3F"/>
<path d="M74.1745 343.279H79.5085V345.099H71.9205V335.299H79.3265V337.119H74.1745V339.247H78.7245V341.011H74.1745V343.279ZM86.4667 337.567H88.5667L85.3887 345.099H83.1347L79.9707 337.567H82.2247L84.3107 342.691L86.4667 337.567ZM96.6308 341.361C96.6308 341.529 96.6028 341.767 96.5888 341.949H90.8908C91.1008 342.887 91.8988 343.461 93.0468 343.461C93.8448 343.461 94.4188 343.223 94.9368 342.733L96.0988 343.993C95.3988 344.791 94.3488 345.211 92.9908 345.211C90.3868 345.211 88.6928 343.573 88.6928 341.333C88.6928 339.079 90.4148 337.455 92.7108 337.455C94.9228 337.455 96.6308 338.939 96.6308 341.361ZM92.7248 339.107C91.7308 339.107 91.0168 339.709 90.8628 340.675H94.5728C94.4188 339.723 93.7048 339.107 92.7248 339.107ZM102.663 337.455C104.441 337.455 105.785 338.491 105.785 340.787V345.099H103.601V341.123C103.601 339.905 103.041 339.345 102.075 339.345C101.025 339.345 100.269 339.989 100.269 341.375V345.099H98.0849V337.567H100.171V338.449C100.759 337.805 101.641 337.455 102.663 337.455ZM112.035 343.195L112.623 344.735C112.175 345.057 111.517 345.211 110.845 345.211C109.067 345.211 108.031 344.301 108.031 342.509V339.415H106.869V337.735H108.031V335.901H110.215V337.735H112.091V339.415H110.215V342.481C110.215 343.125 110.565 343.475 111.153 343.475C111.475 343.475 111.797 343.377 112.035 343.195ZM117.2 345.211C114.806 345.211 113.056 343.601 113.056 341.333C113.056 339.065 114.806 337.455 117.2 337.455C119.594 337.455 121.33 339.065 121.33 341.333C121.33 343.601 119.594 345.211 117.2 345.211ZM117.2 343.419C118.292 343.419 119.118 342.635 119.118 341.333C119.118 340.031 118.292 339.247 117.2 339.247C116.108 339.247 115.268 340.031 115.268 341.333C115.268 342.635 116.108 343.419 117.2 343.419ZM132.243 334.711H134.427V345.099H132.341V344.231C131.795 344.889 130.997 345.211 129.989 345.211C127.861 345.211 126.223 343.699 126.223 341.333C126.223 338.967 127.861 337.455 129.989 337.455C130.913 337.455 131.697 337.749 132.243 338.365V334.711ZM130.367 343.419C131.445 343.419 132.285 342.635 132.285 341.333C132.285 340.031 131.445 339.247 130.367 339.247C129.275 339.247 128.435 340.031 128.435 341.333C128.435 342.635 129.275 343.419 130.367 343.419ZM139.486 337.455C141.782 337.455 143.112 338.519 143.112 340.801V345.099H141.068V344.161C140.662 344.847 139.878 345.211 138.772 345.211C137.008 345.211 135.958 344.231 135.958 342.929C135.958 341.599 136.896 340.675 139.192 340.675H140.928C140.928 339.737 140.368 339.191 139.192 339.191C138.394 339.191 137.568 339.457 137.022 339.891L136.238 338.365C137.064 337.777 138.282 337.455 139.486 337.455ZM139.318 343.741C140.046 343.741 140.676 343.405 140.928 342.719V341.949H139.43C138.408 341.949 138.086 342.327 138.086 342.831C138.086 343.377 138.548 343.741 139.318 343.741ZM156.53 345.099L155.662 342.999H151.112L150.244 345.099H147.92L152.288 335.299H154.528L158.91 345.099H156.53ZM151.84 341.277H154.948L153.394 337.525L151.84 341.277ZM161.858 338.561C162.39 337.833 163.286 337.455 164.448 337.455V339.471C164.266 339.457 164.126 339.443 163.958 339.443C162.754 339.443 161.956 340.101 161.956 341.543V345.099H159.772V337.567H161.858V338.561ZM170.277 343.195L170.865 344.735C170.417 345.057 169.759 345.211 169.087 345.211C167.309 345.211 166.273 344.301 166.273 342.509V339.415H165.111V337.735H166.273V335.901H168.457V337.735H170.333V339.415H168.457V342.481C168.457 343.125 168.807 343.475 169.395 343.475C169.717 343.475 170.039 343.377 170.277 343.195ZM179.236 341.361C179.236 341.529 179.208 341.767 179.194 341.949H173.496C173.706 342.887 174.504 343.461 175.652 343.461C176.45 343.461 177.024 343.223 177.542 342.733L178.704 343.993C178.004 344.791 176.954 345.211 175.596 345.211C172.992 345.211 171.298 343.573 171.298 341.333C171.298 339.079 173.02 337.455 175.316 337.455C177.528 337.455 179.236 338.939 179.236 341.361ZM175.33 339.107C174.336 339.107 173.622 339.709 173.468 340.675H177.178C177.024 339.723 176.31 339.107 175.33 339.107ZM192.033 341.361C192.033 341.529 192.005 341.767 191.991 341.949H186.293C186.503 342.887 187.301 343.461 188.449 343.461C189.247 343.461 189.821 343.223 190.339 342.733L191.501 343.993C190.801 344.791 189.751 345.211 188.393 345.211C185.789 345.211 184.095 343.573 184.095 341.333C184.095 339.079 185.817 337.455 188.113 337.455C190.325 337.455 192.033 338.939 192.033 341.361ZM188.127 339.107C187.133 339.107 186.419 339.709 186.265 340.675H189.975C189.821 339.723 189.107 339.107 188.127 339.107ZM202.296 345.267C199.258 345.267 196.99 343.153 196.99 340.199C196.99 337.245 199.258 335.131 202.31 335.131C204.004 335.131 205.418 335.747 206.342 336.867L204.886 338.211C204.228 337.455 203.402 337.063 202.422 337.063C200.588 337.063 199.286 338.351 199.286 340.199C199.286 342.047 200.588 343.335 202.422 343.335C203.402 343.335 204.228 342.943 204.886 342.173L206.342 343.517C205.418 344.651 204.004 345.267 202.296 345.267ZM212.932 337.567H215.116V345.099H213.044V344.203C212.47 344.861 211.63 345.211 210.706 345.211C208.816 345.211 207.486 344.147 207.486 341.823V337.567H209.67V341.501C209.67 342.761 210.23 343.321 211.196 343.321C212.204 343.321 212.932 342.677 212.932 341.291V337.567ZM217.14 345.099V334.711H219.324V345.099H217.14ZM226.167 343.195L226.755 344.735C226.307 345.057 225.649 345.211 224.977 345.211C223.199 345.211 222.163 344.301 222.163 342.509V339.415H221.001V337.735H222.163V335.901H224.347V337.735H226.223V339.415H224.347V342.481C224.347 343.125 224.697 343.475 225.285 343.475C225.607 343.475 225.929 343.377 226.167 343.195ZM233.385 337.567H235.569V345.099H233.497V344.203C232.923 344.861 232.083 345.211 231.159 345.211C229.269 345.211 227.939 344.147 227.939 341.823V337.567H230.123V341.501C230.123 342.761 230.683 343.321 231.649 343.321C232.657 343.321 233.385 342.677 233.385 341.291V337.567ZM239.679 338.561C240.211 337.833 241.107 337.455 242.269 337.455V339.471C242.087 339.457 241.947 339.443 241.779 339.443C240.575 339.443 239.777 340.101 239.777 341.543V345.099H237.593V337.567H239.679V338.561ZM246.564 337.455C248.86 337.455 250.19 338.519 250.19 340.801V345.099H248.146V344.161C247.74 344.847 246.956 345.211 245.85 345.211C244.086 345.211 243.036 344.231 243.036 342.929C243.036 341.599 243.974 340.675 246.27 340.675H248.006C248.006 339.737 247.446 339.191 246.27 339.191C245.472 339.191 244.646 339.457 244.1 339.891L243.316 338.365C244.142 337.777 245.36 337.455 246.564 337.455ZM246.396 343.741C247.124 343.741 247.754 343.405 248.006 342.719V341.949H246.508C245.486 341.949 245.164 342.327 245.164 342.831C245.164 343.377 245.626 343.741 246.396 343.741Z" fill="#F7A534"/>
<path d="M299.492 220.375H21V296H299.492V220.375Z" stroke="#003F3F" stroke-miterlimit="10"/>
<path d="M299.492 186H21V220.375H299.492V186Z" fill="#F7A534" stroke="#F7A534" stroke-width="0.75" stroke-miterlimit="10"/>
<path d="M103.743 257.75V247.95H108.195C111.401 247.95 113.599 249.882 113.599 252.85C113.599 255.818 111.401 257.75 108.195 257.75H103.743ZM106.011 255.888H108.083C110.029 255.888 111.303 254.726 111.303 252.85C111.303 250.974 110.029 249.812 108.083 249.812H106.011V255.888ZM122.534 254.012C122.534 254.18 122.506 254.418 122.492 254.6H116.794C117.004 255.538 117.802 256.112 118.95 256.112C119.748 256.112 120.322 255.874 120.84 255.384L122.002 256.644C121.302 257.442 120.252 257.862 118.894 257.862C116.29 257.862 114.596 256.224 114.596 253.984C114.596 251.73 116.318 250.106 118.614 250.106C120.826 250.106 122.534 251.59 122.534 254.012ZM118.628 251.758C117.634 251.758 116.92 252.36 116.766 253.326H120.476C120.322 252.374 119.608 251.758 118.628 251.758ZM127.043 247.95H131.271V257.75H129.003V249.77H127.043V247.95ZM136.333 251.632C139.231 251.632 140.379 252.934 140.379 254.67C140.379 256.406 139.105 257.918 136.305 257.918C134.947 257.918 133.519 257.54 132.567 256.868L133.463 255.132C134.205 255.692 135.227 256.014 136.249 256.014C137.383 256.014 138.083 255.538 138.083 254.74C138.083 253.97 137.579 253.466 135.801 253.466H133.295L133.799 247.95H139.777V249.77H135.689L135.535 251.632H136.333ZM151.214 247.362H153.398V257.75H151.312V256.882C150.766 257.54 149.968 257.862 148.96 257.862C146.832 257.862 145.194 256.35 145.194 253.984C145.194 251.618 146.832 250.106 148.96 250.106C149.884 250.106 150.668 250.4 151.214 251.016V247.362ZM149.338 256.07C150.416 256.07 151.256 255.286 151.256 253.984C151.256 252.682 150.416 251.898 149.338 251.898C148.246 251.898 147.406 252.682 147.406 253.984C147.406 255.286 148.246 256.07 149.338 256.07ZM162.798 254.012C162.798 254.18 162.77 254.418 162.756 254.6H157.058C157.268 255.538 158.066 256.112 159.214 256.112C160.012 256.112 160.586 255.874 161.104 255.384L162.266 256.644C161.566 257.442 160.516 257.862 159.158 257.862C156.554 257.862 154.86 256.224 154.86 253.984C154.86 251.73 156.582 250.106 158.878 250.106C161.09 250.106 162.798 251.59 162.798 254.012ZM158.892 251.758C157.898 251.758 157.184 252.36 157.03 253.326H160.74C160.586 252.374 159.872 251.758 158.892 251.758ZM177.862 250.106C179.654 250.106 180.942 251.142 180.942 253.438V257.75H178.758V253.774C178.758 252.556 178.212 251.996 177.33 251.996C176.35 251.996 175.664 252.626 175.664 253.97V257.75H173.48V253.774C173.48 252.556 172.962 251.996 172.052 251.996C171.086 251.996 170.4 252.626 170.4 253.97V257.75H168.216V250.218H170.302V251.086C170.862 250.442 171.702 250.106 172.668 250.106C173.718 250.106 174.614 250.512 175.146 251.338C175.748 250.568 176.728 250.106 177.862 250.106ZM185.938 250.106C188.234 250.106 189.564 251.17 189.564 253.452V257.75H187.52V256.812C187.114 257.498 186.33 257.862 185.224 257.862C183.46 257.862 182.41 256.882 182.41 255.58C182.41 254.25 183.348 253.326 185.644 253.326H187.38C187.38 252.388 186.82 251.842 185.644 251.842C184.846 251.842 184.02 252.108 183.474 252.542L182.69 251.016C183.516 250.428 184.734 250.106 185.938 250.106ZM185.77 256.392C186.498 256.392 187.128 256.056 187.38 255.37V254.6H185.882C184.86 254.6 184.538 254.978 184.538 255.482C184.538 256.028 185 256.392 185.77 256.392ZM193.627 251.212C194.159 250.484 195.055 250.106 196.217 250.106V252.122C196.035 252.108 195.895 252.094 195.727 252.094C194.523 252.094 193.725 252.752 193.725 254.194V257.75H191.541V250.218H193.627V251.212ZM201.073 256.07C201.759 256.07 202.361 255.762 202.767 255.034L204.461 255.958C203.943 257.12 202.767 257.806 201.269 257.862L201.129 258.45C201.983 258.548 202.347 259.038 202.347 259.612C202.347 260.466 201.535 260.998 200.289 260.998C199.799 260.998 199.309 260.886 198.987 260.704L199.323 259.766C199.589 259.892 199.897 259.976 200.233 259.976C200.751 259.976 200.961 259.794 200.961 259.528C200.961 259.29 200.765 259.122 200.275 259.122H199.799L200.135 257.778C198.189 257.414 196.887 255.944 196.887 253.984C196.887 251.716 198.637 250.106 201.087 250.106C202.669 250.106 203.915 250.792 204.461 252.024L202.767 252.934C202.361 252.22 201.759 251.898 201.073 251.898C199.967 251.898 199.099 252.668 199.099 253.984C199.099 255.3 199.967 256.07 201.073 256.07ZM209.207 257.862C206.813 257.862 205.063 256.252 205.063 253.984C205.063 251.716 206.813 250.106 209.207 250.106C211.601 250.106 213.337 251.716 213.337 253.984C213.337 256.252 211.601 257.862 209.207 257.862ZM209.207 256.07C210.299 256.07 211.125 255.286 211.125 253.984C211.125 252.682 210.299 251.898 209.207 251.898C208.115 251.898 207.275 252.682 207.275 253.984C207.275 255.286 208.115 256.07 209.207 256.07ZM89.1001 268.106C91.3961 268.106 92.7261 269.17 92.7261 271.452V275.75H90.6821V274.812C90.2761 275.498 89.4921 275.862 88.3861 275.862C86.6221 275.862 85.5721 274.882 85.5721 273.58C85.5721 272.25 86.5101 271.326 88.8061 271.326H90.5421C90.5421 270.388 89.9821 269.842 88.8061 269.842C88.0081 269.842 87.1821 270.108 86.6361 270.542L85.8521 269.016C86.6781 268.428 87.8961 268.106 89.1001 268.106ZM88.9321 274.392C89.6601 274.392 90.2901 274.056 90.5421 273.37V272.6H89.0441C88.0221 272.6 87.7001 272.978 87.7001 273.482C87.7001 274.028 88.1621 274.392 88.9321 274.392ZM98.0236 265.95H105.878V267.42L102.238 275.75H99.7736L103.288 267.798H100.04V269.394H98.0236V265.95ZM116.802 265.362H118.986V275.75H116.9V274.882C116.354 275.54 115.556 275.862 114.548 275.862C112.42 275.862 110.782 274.35 110.782 271.984C110.782 269.618 112.42 268.106 114.548 268.106C115.472 268.106 116.256 268.4 116.802 269.016V265.362ZM114.926 274.07C116.004 274.07 116.844 273.286 116.844 271.984C116.844 270.682 116.004 269.898 114.926 269.898C113.834 269.898 112.994 270.682 112.994 271.984C112.994 273.286 113.834 274.07 114.926 274.07ZM128.385 272.012C128.385 272.18 128.357 272.418 128.343 272.6H122.645C122.855 273.538 123.653 274.112 124.801 274.112C125.599 274.112 126.173 273.874 126.691 273.384L127.853 274.644C127.153 275.442 126.103 275.862 124.745 275.862C122.141 275.862 120.447 274.224 120.447 271.984C120.447 269.73 122.169 268.106 124.465 268.106C126.677 268.106 128.385 269.59 128.385 272.012ZM124.479 269.758C123.485 269.758 122.771 270.36 122.617 271.326H126.327C126.173 270.374 125.459 269.758 124.479 269.758ZM136.842 268.106C139.138 268.106 140.468 269.17 140.468 271.452V275.75H138.424V274.812C138.018 275.498 137.234 275.862 136.128 275.862C134.364 275.862 133.314 274.882 133.314 273.58C133.314 272.25 134.252 271.326 136.548 271.326H138.284C138.284 270.388 137.724 269.842 136.548 269.842C135.75 269.842 134.924 270.108 134.378 270.542L133.594 269.016C134.42 268.428 135.638 268.106 136.842 268.106ZM136.674 274.392C137.402 274.392 138.032 274.056 138.284 273.37V272.6H136.786C135.764 272.6 135.442 272.978 135.442 273.482C135.442 274.028 135.904 274.392 136.674 274.392ZM146.897 268.106C149.011 268.106 150.649 269.618 150.649 271.984C150.649 274.35 149.011 275.862 146.897 275.862C145.889 275.862 145.077 275.54 144.531 274.882V275.75H142.445V265.362H144.629V269.016C145.189 268.4 145.959 268.106 146.897 268.106ZM146.519 274.07C147.611 274.07 148.437 273.286 148.437 271.984C148.437 270.682 147.611 269.898 146.519 269.898C145.427 269.898 144.601 270.682 144.601 271.984C144.601 273.286 145.427 274.07 146.519 274.07ZM154.197 269.212C154.729 268.484 155.625 268.106 156.787 268.106V270.122C156.605 270.108 156.465 270.094 156.297 270.094C155.093 270.094 154.295 270.752 154.295 272.194V275.75H152.111V268.218H154.197V269.212ZM159.178 267.168C158.366 267.168 157.82 266.636 157.82 265.95C157.82 265.264 158.366 264.732 159.178 264.732C159.99 264.732 160.536 265.236 160.536 265.908C160.536 266.636 159.99 267.168 159.178 267.168ZM158.086 275.75V268.218H160.27V275.75H158.086ZM162.296 275.75V265.362H164.48V275.75H162.296ZM175.96 265.362H178.144V275.75H176.058V274.882C175.512 275.54 174.714 275.862 173.706 275.862C171.578 275.862 169.94 274.35 169.94 271.984C169.94 269.618 171.578 268.106 173.706 268.106C174.63 268.106 175.414 268.4 175.96 269.016V265.362ZM174.084 274.07C175.162 274.07 176.002 273.286 176.002 271.984C176.002 270.682 175.162 269.898 174.084 269.898C172.992 269.898 172.152 270.682 172.152 271.984C172.152 273.286 172.992 274.07 174.084 274.07ZM187.544 272.012C187.544 272.18 187.516 272.418 187.502 272.6H181.804C182.014 273.538 182.812 274.112 183.96 274.112C184.758 274.112 185.332 273.874 185.85 273.384L187.012 274.644C186.312 275.442 185.262 275.862 183.904 275.862C181.3 275.862 179.606 274.224 179.606 271.984C179.606 269.73 181.328 268.106 183.624 268.106C185.836 268.106 187.544 269.59 187.544 272.012ZM183.638 269.758C182.644 269.758 181.93 270.36 181.776 271.326H185.486C185.332 270.374 184.618 269.758 183.638 269.758ZM195.608 273.902H199.822V275.75H192.416V274.28L196.196 270.71C197.064 269.884 197.218 269.38 197.218 268.904C197.218 268.134 196.686 267.686 195.65 267.686C194.81 267.686 194.096 268.008 193.62 268.666L191.968 267.602C192.724 266.496 194.096 265.782 195.86 265.782C198.044 265.782 199.5 266.902 199.5 268.68C199.5 269.632 199.234 270.5 197.862 271.774L195.608 273.902ZM204.931 275.918C202.523 275.918 200.731 274.084 200.731 270.85C200.731 267.616 202.523 265.782 204.931 265.782C207.353 265.782 209.131 267.616 209.131 270.85C209.131 274.084 207.353 275.918 204.931 275.918ZM204.931 274C206.065 274 206.849 273.076 206.849 270.85C206.849 268.624 206.065 267.7 204.931 267.7C203.811 267.7 203.027 268.624 203.027 270.85C203.027 273.076 203.811 274 204.931 274ZM213.259 273.902H217.473V275.75H210.067V274.28L213.847 270.71C214.715 269.884 214.869 269.38 214.869 268.904C214.869 268.134 214.337 267.686 213.301 267.686C212.461 267.686 211.747 268.008 211.271 268.666L209.619 267.602C210.375 266.496 211.747 265.782 213.511 265.782C215.695 265.782 217.151 266.902 217.151 268.68C217.151 269.632 216.885 270.5 215.513 271.774L213.259 273.902ZM227.246 271.844V273.692H225.65V275.75H223.438V273.692H218.16V272.166L222.78 265.95H225.16L220.876 271.844H223.508V270.01H225.65V271.844H227.246ZM229.486 275.862C228.73 275.862 228.128 275.288 228.128 274.49C228.128 273.678 228.73 273.146 229.486 273.146C230.242 273.146 230.844 273.678 230.844 274.49C230.844 275.288 230.242 275.862 229.486 275.862Z" fill="#003F3F"/>
<path d="M73.0008 205.668C69.9068 205.668 67.6388 203.512 67.6388 200.6C67.6388 197.688 69.9068 195.532 73.0008 195.532C76.0808 195.532 78.3628 197.674 78.3628 200.6C78.3628 203.526 76.0808 205.668 73.0008 205.668ZM73.0008 203.736C74.7508 203.736 76.0668 202.462 76.0668 200.6C76.0668 198.738 74.7508 197.464 73.0008 197.464C71.2508 197.464 69.9348 198.738 69.9348 200.6C69.9348 202.462 71.2508 203.736 73.0008 203.736ZM95.0782 205.5H92.9502L92.9362 199.62L90.0522 204.464H89.0302L86.1602 199.746V205.5H84.0322V195.7H85.9082L89.5762 201.79L93.1882 195.7H95.0502L95.0782 205.5ZM104.627 201.762C104.627 201.93 104.599 202.168 104.585 202.35H98.8873C99.0973 203.288 99.8953 203.862 101.043 203.862C101.841 203.862 102.415 203.624 102.933 203.134L104.095 204.394C103.395 205.192 102.345 205.612 100.987 205.612C98.3833 205.612 96.6893 203.974 96.6893 201.734C96.6893 199.48 98.4113 197.856 100.707 197.856C102.919 197.856 104.627 199.34 104.627 201.762ZM100.721 199.508C99.7273 199.508 99.0133 200.11 98.8593 201.076H102.569C102.415 200.124 101.701 199.508 100.721 199.508ZM108.167 198.962C108.699 198.234 109.595 197.856 110.757 197.856V199.872C110.575 199.858 110.435 199.844 110.267 199.844C109.063 199.844 108.265 200.502 108.265 201.944V205.5H106.081V197.968H108.167V198.962ZM115.628 205.612C113.178 205.612 111.428 204.002 111.428 201.734C111.428 199.466 113.178 197.856 115.628 197.856C117.21 197.856 118.456 198.542 119.002 199.774L117.308 200.684C116.902 199.97 116.3 199.648 115.614 199.648C114.508 199.648 113.64 200.418 113.64 201.734C113.64 203.05 114.508 203.82 115.614 203.82C116.3 203.82 116.902 203.512 117.308 202.784L119.002 203.708C118.456 204.912 117.21 205.612 115.628 205.612ZM123.297 197.856C125.593 197.856 126.923 198.92 126.923 201.202V205.5H124.879V204.562C124.473 205.248 123.689 205.612 122.583 205.612C120.819 205.612 119.769 204.632 119.769 203.33C119.769 202 120.707 201.076 123.003 201.076H124.739C124.739 200.138 124.179 199.592 123.003 199.592C122.205 199.592 121.379 199.858 120.833 200.292L120.049 198.766C120.875 198.178 122.093 197.856 123.297 197.856ZM123.129 204.142C123.857 204.142 124.487 203.806 124.739 203.12V202.35H123.241C122.219 202.35 121.897 202.728 121.897 203.232C121.897 203.778 122.359 204.142 123.129 204.142ZM134.47 195.112H136.654V205.5H134.568V204.632C134.022 205.29 133.224 205.612 132.216 205.612C130.088 205.612 128.45 204.1 128.45 201.734C128.45 199.368 130.088 197.856 132.216 197.856C133.14 197.856 133.924 198.15 134.47 198.766V195.112ZM132.594 203.82C133.672 203.82 134.512 203.036 134.512 201.734C134.512 200.432 133.672 199.648 132.594 199.648C131.502 199.648 130.662 200.432 130.662 201.734C130.662 203.036 131.502 203.82 132.594 203.82ZM142.259 205.612C139.865 205.612 138.115 204.002 138.115 201.734C138.115 199.466 139.865 197.856 142.259 197.856C144.653 197.856 146.389 199.466 146.389 201.734C146.389 204.002 144.653 205.612 142.259 205.612ZM142.259 203.82C143.351 203.82 144.177 203.036 144.177 201.734C144.177 200.432 143.351 199.648 142.259 199.648C141.167 199.648 140.327 200.432 140.327 201.734C140.327 203.036 141.167 203.82 142.259 203.82ZM157.302 195.112H159.486V205.5H157.4V204.632C156.854 205.29 156.056 205.612 155.048 205.612C152.92 205.612 151.282 204.1 151.282 201.734C151.282 199.368 152.92 197.856 155.048 197.856C155.972 197.856 156.756 198.15 157.302 198.766V195.112ZM155.426 203.82C156.504 203.82 157.344 203.036 157.344 201.734C157.344 200.432 156.504 199.648 155.426 199.648C154.334 199.648 153.494 200.432 153.494 201.734C153.494 203.036 154.334 203.82 155.426 203.82ZM168.885 201.762C168.885 201.93 168.857 202.168 168.843 202.35H163.145C163.355 203.288 164.153 203.862 165.301 203.862C166.099 203.862 166.673 203.624 167.191 203.134L168.353 204.394C167.653 205.192 166.603 205.612 165.245 205.612C162.641 205.612 160.947 203.974 160.947 201.734C160.947 199.48 162.669 197.856 164.965 197.856C167.177 197.856 168.885 199.34 168.885 201.762ZM164.979 199.508C163.985 199.508 163.271 200.11 163.117 201.076H166.827C166.673 200.124 165.959 199.508 164.979 199.508ZM174.458 205.5V195.7H178.91C182.116 195.7 184.314 197.632 184.314 200.6C184.314 203.568 182.116 205.5 178.91 205.5H174.458ZM176.726 203.638H178.798C180.744 203.638 182.018 202.476 182.018 200.6C182.018 198.724 180.744 197.562 178.798 197.562H176.726V203.638ZM193.248 201.762C193.248 201.93 193.22 202.168 193.206 202.35H187.508C187.718 203.288 188.516 203.862 189.664 203.862C190.462 203.862 191.036 203.624 191.554 203.134L192.716 204.394C192.016 205.192 190.966 205.612 189.608 205.612C187.004 205.612 185.31 203.974 185.31 201.734C185.31 199.48 187.032 197.856 189.328 197.856C191.54 197.856 193.248 199.34 193.248 201.762ZM189.342 199.508C188.348 199.508 187.634 200.11 187.48 201.076H191.19C191.036 200.124 190.322 199.508 189.342 199.508ZM194.702 205.5V195.112H196.886V205.5H194.702ZM200.005 196.918C199.193 196.918 198.647 196.386 198.647 195.7C198.647 195.014 199.193 194.482 200.005 194.482C200.817 194.482 201.363 194.986 201.363 195.658C201.363 196.386 200.817 196.918 200.005 196.918ZM198.913 205.5V197.968H201.097V205.5H198.913ZM206.764 205.612C204.314 205.612 202.564 204.002 202.564 201.734C202.564 199.466 204.314 197.856 206.764 197.856C208.346 197.856 209.592 198.542 210.138 199.774L208.444 200.684C208.038 199.97 207.436 199.648 206.75 199.648C205.644 199.648 204.776 200.418 204.776 201.734C204.776 203.05 205.644 203.82 206.75 203.82C207.436 203.82 208.038 203.512 208.444 202.784L210.138 203.708C209.592 204.912 208.346 205.612 206.764 205.612ZM214.434 197.856C216.73 197.856 218.06 198.92 218.06 201.202V205.5H216.016V204.562C215.61 205.248 214.826 205.612 213.72 205.612C211.956 205.612 210.906 204.632 210.906 203.33C210.906 202 211.844 201.076 214.14 201.076H215.876C215.876 200.138 215.316 199.592 214.14 199.592C213.342 199.592 212.516 199.858 211.97 200.292L211.186 198.766C212.012 198.178 213.23 197.856 214.434 197.856ZM214.266 204.142C214.994 204.142 215.624 203.806 215.876 203.12V202.35H214.378C213.356 202.35 213.034 202.728 213.034 203.232C213.034 203.778 213.496 204.142 214.266 204.142ZM225.606 195.112H227.79V205.5H225.704V204.632C225.158 205.29 224.36 205.612 223.352 205.612C221.224 205.612 219.586 204.1 219.586 201.734C219.586 199.368 221.224 197.856 223.352 197.856C224.276 197.856 225.06 198.15 225.606 198.766V195.112ZM223.73 203.82C224.808 203.82 225.648 203.036 225.648 201.734C225.648 200.432 224.808 199.648 223.73 199.648C222.638 199.648 221.798 200.432 221.798 201.734C221.798 203.036 222.638 203.82 223.73 203.82ZM237.19 201.762C237.19 201.93 237.162 202.168 237.148 202.35H231.45C231.66 203.288 232.458 203.862 233.606 203.862C234.404 203.862 234.978 203.624 235.496 203.134L236.658 204.394C235.958 205.192 234.908 205.612 233.55 205.612C230.946 205.612 229.252 203.974 229.252 201.734C229.252 199.48 230.974 197.856 233.27 197.856C235.482 197.856 237.19 199.34 237.19 201.762ZM233.284 199.508C232.29 199.508 231.576 200.11 231.422 201.076H235.132C234.978 200.124 234.264 199.508 233.284 199.508ZM240.815 203.82H244.777V205.5H238.057V204.184L241.893 199.648H238.155V197.968H244.651V199.284L240.815 203.82ZM249.215 197.856C251.511 197.856 252.841 198.92 252.841 201.202V205.5H250.797V204.562C250.391 205.248 249.607 205.612 248.501 205.612C246.737 205.612 245.687 204.632 245.687 203.33C245.687 202 246.625 201.076 248.921 201.076H250.657C250.657 200.138 250.097 199.592 248.921 199.592C248.123 199.592 247.297 199.858 246.751 200.292L245.967 198.766C246.793 198.178 248.011 197.856 249.215 197.856ZM249.047 204.142C249.775 204.142 250.405 203.806 250.657 203.12V202.35H249.159C248.137 202.35 247.815 202.728 247.815 203.232C247.815 203.778 248.277 204.142 249.047 204.142Z" fill="#003F3F"/>
<path d="M-5.34058e-05 482H35L35 447H-5.34058e-05L-5.34058e-05 482Z" fill="#022E30"/>
<path d="M31.0972 464.5L17.5002 450.903L3.90328 464.5L17.5003 478.097L31.0972 464.5Z" fill="#F7A534"/>
<path d="M17.5 471.447C21.3365 471.447 24.4465 468.336 24.4465 464.5C24.4465 460.664 21.3365 457.553 17.5 457.553C13.6635 457.553 10.5535 460.664 10.5535 464.5C10.5535 468.336 13.6635 471.447 17.5 471.447Z" fill="white"/>
</svg>
