<svg width="697" height="381" viewBox="0 0 697 381" fill="none" xmlns="http://www.w3.org/2000/svg">
<path d="M620.33 0H544V76.3304H620.33V0Z" fill="#022E30"/>
<path d="M582.165 7.85748C565.427 7.85748 551.858 21.4276 551.858 38.1633C551.858 54.9041 565.427 68.473 582.165 68.473C598.904 68.473 612.473 54.9041 612.473 38.1633C612.473 21.4276 598.904 7.85748 582.165 7.85748Z" fill="white"/>
<path d="M582.165 61.0458C569.549 61.0458 559.285 50.7816 559.285 38.1633C559.285 25.5486 569.549 15.2846 582.165 15.2846C594.781 15.2846 605.045 25.5486 605.045 38.1633C605.045 50.7816 594.781 61.0458 582.165 61.0458Z" fill="#F7A534"/>
<path d="M582.166 17.725C570.894 17.725 561.726 26.8945 561.726 38.1633C561.726 49.4347 570.894 58.6054 582.166 58.6054C593.437 58.6054 602.605 49.4347 602.605 38.1633C602.605 26.8945 593.437 17.725 582.166 17.725Z" fill="white"/>
<path d="M696.33 76H620V152.33H696.33V76Z" fill="#F7A534"/>
<path d="M654.074 138.983H696.33V89.3473H654.074C640.368 89.3473 629.256 100.459 629.256 114.165C629.256 127.872 640.368 138.983 654.074 138.983Z" fill="#022E30"/>
<path d="M654.074 130.954H696.33V97.3766H654.074C644.802 97.3766 637.286 104.893 637.286 114.165C637.286 123.437 644.802 130.954 654.074 130.954Z" fill="#F7A534"/>
<path d="M655.201 126.241H696.331V102.089H655.201C648.532 102.089 643.125 107.496 643.125 114.165C643.125 120.835 648.532 126.241 655.201 126.241Z" fill="white"/>
<path d="M8.39233e-05 356.33H76.3306L76.3306 280H8.39233e-05L8.39233e-05 356.33Z" fill="#022E30"/>
<path d="M67.8185 318.165L38.1653 288.512L8.51211 318.165L38.1653 347.818L67.8185 318.165Z" fill="#F7A534"/>
<path d="M38.1651 333.315C46.5319 333.315 53.3146 326.532 53.3146 318.165C53.3146 309.798 46.5319 303.016 38.1651 303.016C29.7983 303.016 23.0156 309.798 23.0156 318.165C23.0156 326.532 29.7983 333.315 38.1651 333.315Z" fill="white"/>
<path d="M213.728 40H29V90H213.728V40Z" fill="#003F3F" stroke="#003F3F" stroke-width="0.75" stroke-miterlimit="10"/>
<path d="M213.728 90H29V200H213.728V90Z" stroke="#F7A534" stroke-miterlimit="10"/>
<path d="M68.5311 144V132.8H73.6191C77.2831 132.8 79.7951 135.008 79.7951 138.4C79.7951 141.792 77.2831 144 73.6191 144H68.5311ZM71.1231 141.872H73.4911C75.7151 141.872 77.1711 140.544 77.1711 138.4C77.1711 136.256 75.7151 134.928 73.4911 134.928H71.1231V141.872ZM90.0059 139.728C90.0059 139.92 89.9739 140.192 89.9579 140.4H83.4459C83.6859 141.472 84.5979 142.128 85.9099 142.128C86.8219 142.128 87.4779 141.856 88.0699 141.296L89.3979 142.736C88.5979 143.648 87.3979 144.128 85.8459 144.128C82.8699 144.128 80.9339 142.256 80.9339 139.696C80.9339 137.12 82.9019 135.264 85.5259 135.264C88.0539 135.264 90.0059 136.96 90.0059 139.728ZM85.5419 137.152C84.4059 137.152 83.5899 137.84 83.4139 138.944H87.6539C87.4779 137.856 86.6619 137.152 85.5419 137.152ZM95.1589 132.8H99.9909V144H97.3989V134.88H95.1589V132.8ZM105.777 137.008C109.089 137.008 110.401 138.496 110.401 140.48C110.401 142.464 108.945 144.192 105.745 144.192C104.193 144.192 102.561 143.76 101.473 142.992L102.497 141.008C103.345 141.648 104.513 142.016 105.681 142.016C106.977 142.016 107.777 141.472 107.777 140.56C107.777 139.68 107.201 139.104 105.169 139.104H102.305L102.881 132.8H109.713V134.88H105.041L104.865 137.008H105.777ZM119.983 135.264C122.607 135.264 124.127 136.48 124.127 139.088V144H121.791V142.928C121.327 143.712 120.431 144.128 119.167 144.128C117.151 144.128 115.951 143.008 115.951 141.52C115.951 140 117.023 138.944 119.647 138.944H121.631C121.631 137.872 120.991 137.248 119.647 137.248C118.735 137.248 117.791 137.552 117.167 138.048L116.271 136.304C117.215 135.632 118.607 135.264 119.983 135.264ZM119.791 142.448C120.623 142.448 121.343 142.064 121.631 141.28V140.4H119.919C118.751 140.4 118.383 140.832 118.383 141.408C118.383 142.032 118.911 142.448 119.791 142.448ZM135.622 137.36C137.638 137.68 138.662 138.928 138.662 140.576C138.662 142.464 137.206 144.192 134.022 144.192C132.454 144.192 130.838 143.76 129.75 142.992L130.758 141.008C131.606 141.648 132.79 142.016 133.958 142.016C135.254 142.016 136.054 141.488 136.054 140.576C136.054 139.728 135.43 139.2 133.958 139.2H132.774V137.488L135.078 134.88H130.31V132.8H138.15V134.48L135.622 137.36ZM144.658 144.192C141.906 144.192 139.858 142.096 139.858 138.4C139.858 134.704 141.906 132.608 144.658 132.608C147.426 132.608 149.458 134.704 149.458 138.4C149.458 142.096 147.426 144.192 144.658 144.192ZM144.658 142C145.954 142 146.85 140.944 146.85 138.4C146.85 135.856 145.954 134.8 144.658 134.8C143.378 134.8 142.482 135.856 142.482 138.4C142.482 140.944 143.378 142 144.658 142ZM162.049 132.128H164.545V144H162.161V143.008C161.537 143.76 160.625 144.128 159.473 144.128C157.041 144.128 155.169 142.4 155.169 139.696C155.169 136.992 157.041 135.264 159.473 135.264C160.529 135.264 161.425 135.6 162.049 136.304V132.128ZM159.905 142.08C161.137 142.08 162.097 141.184 162.097 139.696C162.097 138.208 161.137 137.312 159.905 137.312C158.657 137.312 157.697 138.208 157.697 139.696C157.697 141.184 158.657 142.08 159.905 142.08ZM175.287 139.728C175.287 139.92 175.255 140.192 175.239 140.4H168.727C168.967 141.472 169.879 142.128 171.191 142.128C172.103 142.128 172.759 141.856 173.351 141.296L174.679 142.736C173.879 143.648 172.679 144.128 171.127 144.128C168.151 144.128 166.215 142.256 166.215 139.696C166.215 137.12 168.183 135.264 170.807 135.264C173.335 135.264 175.287 136.96 175.287 139.728ZM170.823 137.152C169.687 137.152 168.871 137.84 168.695 138.944H172.935C172.759 137.856 171.943 137.152 170.823 137.152ZM67.1838 153.264C69.2318 153.264 70.7038 154.448 70.7038 157.072V162H68.2078V157.456C68.2078 156.064 67.5838 155.424 66.5758 155.424C65.4558 155.424 64.6718 156.144 64.6718 157.68V162H62.1758V157.456C62.1758 156.064 61.5838 155.424 60.5438 155.424C59.4398 155.424 58.6558 156.144 58.6558 157.68V162H56.1598V153.392H58.5438V154.384C59.1838 153.648 60.1438 153.264 61.2478 153.264C62.4478 153.264 63.4718 153.728 64.0798 154.672C64.7678 153.792 65.8878 153.264 67.1838 153.264ZM76.4131 153.264C79.0371 153.264 80.5571 154.48 80.5571 157.088V162H78.2211V160.928C77.7571 161.712 76.8611 162.128 75.5971 162.128C73.5811 162.128 72.3811 161.008 72.3811 159.52C72.3811 158 73.4531 156.944 76.0771 156.944H78.0611C78.0611 155.872 77.4211 155.248 76.0771 155.248C75.1651 155.248 74.2211 155.552 73.5971 156.048L72.7011 154.304C73.6451 153.632 75.0371 153.264 76.4131 153.264ZM76.2211 160.448C77.0531 160.448 77.7731 160.064 78.0611 159.28V158.4H76.3491C75.1811 158.4 74.8131 158.832 74.8131 159.408C74.8131 160.032 75.3411 160.448 76.2211 160.448ZM85.2001 154.528C85.8081 153.696 86.8321 153.264 88.1601 153.264V155.568C87.9521 155.552 87.7921 155.536 87.6001 155.536C86.2241 155.536 85.3121 156.288 85.3121 157.936V162H82.8161V153.392H85.2001V154.528ZM93.7101 160.08C94.4941 160.08 95.1821 159.728 95.6461 158.896L97.5821 159.952C96.9901 161.28 95.6461 162.064 93.9341 162.128L93.7741 162.8C94.7501 162.912 95.1661 163.472 95.1661 164.128C95.1661 165.104 94.2381 165.712 92.8141 165.712C92.2541 165.712 91.6941 165.584 91.3261 165.376L91.7101 164.304C92.0141 164.448 92.3661 164.544 92.7501 164.544C93.3421 164.544 93.5821 164.336 93.5821 164.032C93.5821 163.76 93.3581 163.568 92.7981 163.568H92.2541L92.6381 162.032C90.4141 161.616 88.9261 159.936 88.9261 157.696C88.9261 155.104 90.9261 153.264 93.7261 153.264C95.5341 153.264 96.9581 154.048 97.5821 155.456L95.6461 156.496C95.1821 155.68 94.4941 155.312 93.7101 155.312C92.4461 155.312 91.4541 156.192 91.4541 157.696C91.4541 159.2 92.4461 160.08 93.7101 160.08ZM103.006 162.128C100.27 162.128 98.2698 160.288 98.2698 157.696C98.2698 155.104 100.27 153.264 103.006 153.264C105.742 153.264 107.726 155.104 107.726 157.696C107.726 160.288 105.742 162.128 103.006 162.128ZM103.006 160.08C104.254 160.08 105.198 159.184 105.198 157.696C105.198 156.208 104.254 155.312 103.006 155.312C101.758 155.312 100.798 156.208 100.798 157.696C100.798 159.184 101.758 160.08 103.006 160.08ZM120.197 150.128H122.693V162H120.309V161.008C119.685 161.76 118.773 162.128 117.621 162.128C115.189 162.128 113.317 160.4 113.317 157.696C113.317 154.992 115.189 153.264 117.621 153.264C118.677 153.264 119.573 153.6 120.197 154.304V150.128ZM118.053 160.08C119.285 160.08 120.245 159.184 120.245 157.696C120.245 156.208 119.285 155.312 118.053 155.312C116.805 155.312 115.845 156.208 115.845 157.696C115.845 159.184 116.805 160.08 118.053 160.08ZM133.436 157.728C133.436 157.92 133.404 158.192 133.388 158.4H126.876C127.116 159.472 128.028 160.128 129.34 160.128C130.252 160.128 130.908 159.856 131.5 159.296L132.828 160.736C132.028 161.648 130.828 162.128 129.276 162.128C126.3 162.128 124.364 160.256 124.364 157.696C124.364 155.12 126.332 153.264 128.956 153.264C131.484 153.264 133.436 154.96 133.436 157.728ZM128.972 155.152C127.836 155.152 127.02 155.84 126.844 156.944H131.084C130.908 155.856 130.092 155.152 128.972 155.152ZM142.653 159.888H147.469V162H139.005V160.32L143.325 156.24C144.317 155.296 144.493 154.72 144.493 154.176C144.493 153.296 143.885 152.784 142.701 152.784C141.741 152.784 140.925 153.152 140.381 153.904L138.493 152.688C139.357 151.424 140.925 150.608 142.941 150.608C145.437 150.608 147.101 151.888 147.101 153.92C147.101 155.008 146.797 156 145.229 157.456L142.653 159.888ZM153.307 162.192C150.555 162.192 148.507 160.096 148.507 156.4C148.507 152.704 150.555 150.608 153.307 150.608C156.075 150.608 158.107 152.704 158.107 156.4C158.107 160.096 156.075 162.192 153.307 162.192ZM153.307 160C154.603 160 155.499 158.944 155.499 156.4C155.499 153.856 154.603 152.8 153.307 152.8C152.027 152.8 151.131 153.856 151.131 156.4C151.131 158.944 152.027 160 153.307 160ZM162.824 159.888H167.64V162H159.176V160.32L163.496 156.24C164.488 155.296 164.664 154.72 164.664 154.176C164.664 153.296 164.056 152.784 162.872 152.784C161.912 152.784 161.096 153.152 160.552 153.904L158.664 152.688C159.528 151.424 161.096 150.608 163.112 150.608C165.608 150.608 167.272 151.888 167.272 153.92C167.272 155.008 166.968 156 165.4 157.456L162.824 159.888ZM178.81 157.536V159.648H176.986V162H174.458V159.648H168.426V157.904L173.706 150.8H176.426L171.53 157.536H174.538V155.44H176.986V157.536H178.81ZM181.369 162.128C180.505 162.128 179.817 161.472 179.817 160.56C179.817 159.632 180.505 159.024 181.369 159.024C182.233 159.024 182.921 159.632 182.921 160.56C182.921 161.472 182.233 162.128 181.369 162.128Z" fill="#003F3F"/>
<path d="M55.4068 63.192C51.9348 63.192 49.3428 60.776 49.3428 57.4C49.3428 54.024 51.9348 51.608 55.4228 51.608C57.3588 51.608 58.9748 52.312 60.0308 53.592L58.3668 55.128C57.6148 54.264 56.6708 53.816 55.5508 53.816C53.4548 53.816 51.9668 55.288 51.9668 57.4C51.9668 59.512 53.4548 60.984 55.5508 60.984C56.6708 60.984 57.6148 60.536 58.3668 59.656L60.0308 61.192C58.9748 62.488 57.3588 63.192 55.4068 63.192ZM67.5624 54.392H70.0584V63H67.6904V61.976C67.0344 62.728 66.0744 63.128 65.0184 63.128C62.8584 63.128 61.3384 61.912 61.3384 59.256V54.392H63.8344V58.888C63.8344 60.328 64.4744 60.968 65.5784 60.968C66.7304 60.968 67.5624 60.232 67.5624 58.648V54.392ZM74.7548 55.528C75.3628 54.696 76.3868 54.264 77.7148 54.264V56.568C77.5068 56.552 77.3468 56.536 77.1548 56.536C75.7788 56.536 74.8668 57.288 74.8668 58.936V63H72.3708V54.392H74.7548V55.528ZM82.1261 63.128C80.6701 63.128 79.1981 62.728 78.3981 62.2L79.2301 60.408C79.9981 60.904 81.1661 61.24 82.2221 61.24C83.3741 61.24 83.8061 60.936 83.8061 60.456C83.8061 59.048 78.6061 60.488 78.6061 57.048C78.6061 55.416 80.0781 54.264 82.5901 54.264C83.7741 54.264 85.0861 54.536 85.9021 55.016L85.0701 56.792C84.2221 56.312 83.3741 56.152 82.5901 56.152C81.4701 56.152 80.9901 56.504 80.9901 56.952C80.9901 58.424 86.1901 57 86.1901 60.392C86.1901 61.992 84.7021 63.128 82.1261 63.128ZM91.8261 63.128C89.0901 63.128 87.0901 61.288 87.0901 58.696C87.0901 56.104 89.0901 54.264 91.8261 54.264C94.5621 54.264 96.5461 56.104 96.5461 58.696C96.5461 61.288 94.5621 63.128 91.8261 63.128ZM91.8261 61.08C93.0741 61.08 94.0181 60.184 94.0181 58.696C94.0181 57.208 93.0741 56.312 91.8261 56.312C90.5781 56.312 89.6181 57.208 89.6181 58.696C89.6181 60.184 90.5781 61.08 91.8261 61.08ZM101.111 63.128C99.6545 63.128 98.1825 62.728 97.3825 62.2L98.2145 60.408C98.9825 60.904 100.151 61.24 101.207 61.24C102.359 61.24 102.791 60.936 102.791 60.456C102.791 59.048 97.5905 60.488 97.5905 57.048C97.5905 55.416 99.0625 54.264 101.575 54.264C102.759 54.264 104.071 54.536 104.887 55.016L104.055 56.792C103.207 56.312 102.359 56.152 101.575 56.152C100.455 56.152 99.9745 56.504 99.9745 56.952C99.9745 58.424 105.175 57 105.175 60.392C105.175 61.992 103.687 63.128 101.111 63.128ZM119.678 58.728C119.678 58.92 119.646 59.192 119.63 59.4H113.118C113.358 60.472 114.27 61.128 115.582 61.128C116.494 61.128 117.15 60.856 117.742 60.296L119.07 61.736C118.27 62.648 117.07 63.128 115.518 63.128C112.542 63.128 110.606 61.256 110.606 58.696C110.606 56.12 112.574 54.264 115.198 54.264C117.726 54.264 119.678 55.96 119.678 58.728ZM115.214 56.152C114.078 56.152 113.262 56.84 113.086 57.944H117.326C117.15 56.856 116.334 56.152 115.214 56.152ZM131.471 63.192C127.935 63.192 125.343 60.728 125.343 57.4C125.343 54.072 127.935 51.608 131.471 51.608C134.991 51.608 137.599 54.056 137.599 57.4C137.599 60.744 134.991 63.192 131.471 63.192ZM131.471 60.984C133.471 60.984 134.975 59.528 134.975 57.4C134.975 55.272 133.471 53.816 131.471 53.816C129.471 53.816 127.967 55.272 127.967 57.4C127.967 59.528 129.471 60.984 131.471 60.984ZM148.169 53.192C147.241 53.192 146.617 52.584 146.617 51.8C146.617 51.016 147.241 50.408 148.169 50.408C149.097 50.408 149.721 50.984 149.721 51.752C149.721 52.584 149.097 53.192 148.169 53.192ZM143.321 52.968C142.585 52.968 142.185 53.368 142.185 54.216V54.584H144.393V56.504H142.249V63H139.753V56.504H138.425V54.584H139.753V54.2C139.753 52.264 140.937 51 143.081 51C143.785 51 144.521 51.144 144.985 51.464L144.329 53.272C144.057 53.08 143.705 52.968 143.321 52.968ZM146.921 63V54.392H149.417V63H146.921ZM155.89 63.128C153.09 63.128 151.09 61.288 151.09 58.696C151.09 56.104 153.09 54.264 155.89 54.264C157.698 54.264 159.122 55.048 159.746 56.456L157.81 57.496C157.346 56.68 156.658 56.312 155.874 56.312C154.61 56.312 153.618 57.192 153.618 58.696C153.618 60.2 154.61 61.08 155.874 61.08C156.658 61.08 157.346 60.728 157.81 59.896L159.746 60.952C159.122 62.328 157.698 63.128 155.89 63.128ZM162.431 53.192C161.503 53.192 160.879 52.584 160.879 51.8C160.879 51.016 161.503 50.408 162.431 50.408C163.359 50.408 163.983 50.984 163.983 51.752C163.983 52.584 163.359 53.192 162.431 53.192ZM161.183 63V54.392H163.679V63H161.183ZM171.228 54.264C173.26 54.264 174.796 55.448 174.796 58.072V63H172.3V58.456C172.3 57.064 171.66 56.424 170.556 56.424C169.356 56.424 168.492 57.16 168.492 58.744V63H165.996V54.392H168.38V55.4C169.052 54.664 170.06 54.264 171.228 54.264ZM180.53 54.264C183.154 54.264 184.674 55.48 184.674 58.088V63H182.338V61.928C181.874 62.712 180.978 63.128 179.714 63.128C177.698 63.128 176.498 62.008 176.498 60.52C176.498 59 177.57 57.944 180.194 57.944H182.178C182.178 56.872 181.538 56.248 180.194 56.248C179.282 56.248 178.338 56.552 177.714 57.048L176.818 55.304C177.762 54.632 179.154 54.264 180.53 54.264ZM180.338 61.448C181.17 61.448 181.89 61.064 182.178 60.28V59.4H180.466C179.298 59.4 178.93 59.832 178.93 60.408C178.93 61.032 179.458 61.448 180.338 61.448ZM189.829 63.128C188.373 63.128 186.901 62.728 186.101 62.2L186.933 60.408C187.701 60.904 188.869 61.24 189.925 61.24C191.077 61.24 191.509 60.936 191.509 60.456C191.509 59.048 186.309 60.488 186.309 57.048C186.309 55.416 187.781 54.264 190.293 54.264C191.477 54.264 192.789 54.536 193.605 55.016L192.773 56.792C191.925 56.312 191.077 56.152 190.293 56.152C189.173 56.152 188.693 56.504 188.693 56.952C188.693 58.424 193.893 57 193.893 60.392C193.893 61.992 192.405 63.128 189.829 63.128ZM95.7287 69.128H98.2247V81H95.8407V80.008C95.2167 80.76 94.3047 81.128 93.1527 81.128C90.7207 81.128 88.8487 79.4 88.8487 76.696C88.8487 73.992 90.7207 72.264 93.1527 72.264C94.2087 72.264 95.1047 72.6 95.7287 73.304V69.128ZM93.5847 79.08C94.8167 79.08 95.7767 78.184 95.7767 76.696C95.7767 75.208 94.8167 74.312 93.5847 74.312C92.3367 74.312 91.3767 75.208 91.3767 76.696C91.3767 78.184 92.3367 79.08 93.5847 79.08ZM108.967 76.728C108.967 76.92 108.935 77.192 108.919 77.4H102.407C102.647 78.472 103.559 79.128 104.871 79.128C105.783 79.128 106.439 78.856 107.031 78.296L108.359 79.736C107.559 80.648 106.359 81.128 104.807 81.128C101.831 81.128 99.8948 79.256 99.8948 76.696C99.8948 74.12 101.863 72.264 104.487 72.264C107.015 72.264 108.967 73.96 108.967 76.728ZM104.503 74.152C103.367 74.152 102.551 74.84 102.375 75.944H106.615C106.439 74.856 105.623 74.152 104.503 74.152ZM123.704 81L122.712 78.6H117.512L116.52 81H113.864L118.856 69.8H121.416L126.424 81H123.704ZM118.344 76.632H121.896L120.12 72.344L118.344 76.632ZM129.794 73.528C130.402 72.696 131.426 72.264 132.754 72.264V74.568C132.546 74.552 132.386 74.536 132.194 74.536C130.818 74.536 129.906 75.288 129.906 76.936V81H127.41V72.392H129.794V73.528ZM139.415 78.824L140.087 80.584C139.575 80.952 138.823 81.128 138.055 81.128C136.023 81.128 134.839 80.088 134.839 78.04V74.504H133.511V72.584H134.839V70.488H137.335V72.584H139.479V74.504H137.335V78.008C137.335 78.744 137.735 79.144 138.407 79.144C138.775 79.144 139.143 79.032 139.415 78.824ZM149.654 76.728C149.654 76.92 149.622 77.192 149.606 77.4H143.094C143.334 78.472 144.246 79.128 145.558 79.128C146.47 79.128 147.126 78.856 147.718 78.296L149.046 79.736C148.246 80.648 147.046 81.128 145.494 81.128C142.518 81.128 140.582 79.256 140.582 76.696C140.582 74.12 142.55 72.264 145.174 72.264C147.702 72.264 149.654 73.96 149.654 76.728ZM145.19 74.152C144.054 74.152 143.238 74.84 143.062 75.944H147.302C147.126 74.856 146.31 74.152 145.19 74.152Z" fill="#F7A534"/>
<path d="M452.874 170H268.146V280H452.874V170Z" stroke="#003F3F" stroke-miterlimit="10"/>
<path d="M452.874 120H268.146V170H452.874V120Z" fill="#F7A534" stroke="#F7A534" stroke-width="0.75" stroke-miterlimit="10"/>
<path d="M296.324 219V207.8H301.412C305.076 207.8 307.588 210.008 307.588 213.4C307.588 216.792 305.076 219 301.412 219H296.324ZM298.916 216.872H301.284C303.508 216.872 304.964 215.544 304.964 213.4C304.964 211.256 303.508 209.928 301.284 209.928H298.916V216.872ZM317.799 214.728C317.799 214.92 317.767 215.192 317.751 215.4H311.239C311.479 216.472 312.391 217.128 313.703 217.128C314.615 217.128 315.271 216.856 315.863 216.296L317.191 217.736C316.391 218.648 315.191 219.128 313.639 219.128C310.663 219.128 308.727 217.256 308.727 214.696C308.727 212.12 310.695 210.264 313.319 210.264C315.847 210.264 317.799 211.96 317.799 214.728ZM313.335 212.152C312.199 212.152 311.383 212.84 311.207 213.944H315.447C315.271 212.856 314.455 212.152 313.335 212.152ZM322.952 207.8H327.784V219H325.192V209.88H322.952V207.8ZM333.569 212.008C336.881 212.008 338.193 213.496 338.193 215.48C338.193 217.464 336.737 219.192 333.537 219.192C331.985 219.192 330.353 218.76 329.265 217.992L330.289 216.008C331.137 216.648 332.305 217.016 333.473 217.016C334.769 217.016 335.569 216.472 335.569 215.56C335.569 214.68 334.993 214.104 332.961 214.104H330.097L330.673 207.8H337.505V209.88H332.833L332.657 212.008H333.569ZM350.576 207.128H353.072V219H350.688V218.008C350.064 218.76 349.152 219.128 348 219.128C345.568 219.128 343.696 217.4 343.696 214.696C343.696 211.992 345.568 210.264 348 210.264C349.056 210.264 349.952 210.6 350.576 211.304V207.128ZM348.432 217.08C349.664 217.08 350.624 216.184 350.624 214.696C350.624 213.208 349.664 212.312 348.432 212.312C347.184 212.312 346.224 213.208 346.224 214.696C346.224 216.184 347.184 217.08 348.432 217.08ZM363.814 214.728C363.814 214.92 363.782 215.192 363.766 215.4H357.254C357.494 216.472 358.406 217.128 359.718 217.128C360.63 217.128 361.286 216.856 361.878 216.296L363.206 217.736C362.406 218.648 361.206 219.128 359.654 219.128C356.678 219.128 354.742 217.256 354.742 214.696C354.742 212.12 356.71 210.264 359.334 210.264C361.862 210.264 363.814 211.96 363.814 214.728ZM359.35 212.152C358.214 212.152 357.398 212.84 357.222 213.944H361.462C361.286 212.856 360.47 212.152 359.35 212.152ZM381.031 210.264C383.079 210.264 384.551 211.448 384.551 214.072V219H382.055V214.456C382.055 213.064 381.431 212.424 380.423 212.424C379.303 212.424 378.519 213.144 378.519 214.68V219H376.023V214.456C376.023 213.064 375.431 212.424 374.391 212.424C373.287 212.424 372.503 213.144 372.503 214.68V219H370.007V210.392H372.391V211.384C373.031 210.648 373.991 210.264 375.095 210.264C376.295 210.264 377.319 210.728 377.927 211.672C378.615 210.792 379.735 210.264 381.031 210.264ZM390.261 210.264C392.885 210.264 394.405 211.48 394.405 214.088V219H392.069V217.928C391.605 218.712 390.709 219.128 389.445 219.128C387.429 219.128 386.229 218.008 386.229 216.52C386.229 215 387.301 213.944 389.925 213.944H391.909C391.909 212.872 391.269 212.248 389.925 212.248C389.013 212.248 388.069 212.552 387.445 213.048L386.549 211.304C387.493 210.632 388.885 210.264 390.261 210.264ZM390.069 217.448C390.901 217.448 391.621 217.064 391.909 216.28V215.4H390.197C389.029 215.4 388.661 215.832 388.661 216.408C388.661 217.032 389.189 217.448 390.069 217.448ZM399.048 211.528C399.656 210.696 400.68 210.264 402.008 210.264V212.568C401.8 212.552 401.64 212.536 401.448 212.536C400.072 212.536 399.16 213.288 399.16 214.936V219H396.664V210.392H399.048V211.528ZM407.558 217.08C408.342 217.08 409.03 216.728 409.494 215.896L411.43 216.952C410.838 218.28 409.494 219.064 407.782 219.128L407.622 219.8C408.598 219.912 409.014 220.472 409.014 221.128C409.014 222.104 408.086 222.712 406.662 222.712C406.102 222.712 405.542 222.584 405.174 222.376L405.558 221.304C405.862 221.448 406.214 221.544 406.598 221.544C407.19 221.544 407.43 221.336 407.43 221.032C407.43 220.76 407.206 220.568 406.646 220.568H406.102L406.486 219.032C404.262 218.616 402.774 216.936 402.774 214.696C402.774 212.104 404.774 210.264 407.574 210.264C409.382 210.264 410.806 211.048 411.43 212.456L409.494 213.496C409.03 212.68 408.342 212.312 407.558 212.312C406.294 212.312 405.302 213.192 405.302 214.696C405.302 216.2 406.294 217.08 407.558 217.08ZM416.853 219.128C414.117 219.128 412.117 217.288 412.117 214.696C412.117 212.104 414.117 210.264 416.853 210.264C419.589 210.264 421.573 212.104 421.573 214.696C421.573 217.288 419.589 219.128 416.853 219.128ZM416.853 217.08C418.101 217.08 419.045 216.184 419.045 214.696C419.045 213.208 418.101 212.312 416.853 212.312C415.605 212.312 414.645 213.208 414.645 214.696C414.645 216.184 415.605 217.08 416.853 217.08ZM306.612 228.264C309.236 228.264 310.756 229.48 310.756 232.088V237H308.42V235.928C307.956 236.712 307.06 237.128 305.796 237.128C303.78 237.128 302.58 236.008 302.58 234.52C302.58 233 303.652 231.944 306.276 231.944H308.26C308.26 230.872 307.62 230.248 306.276 230.248C305.364 230.248 304.42 230.552 303.796 231.048L302.9 229.304C303.844 228.632 305.236 228.264 306.612 228.264ZM306.42 235.448C307.252 235.448 307.972 235.064 308.26 234.28V233.4H306.548C305.38 233.4 305.012 233.832 305.012 234.408C305.012 235.032 305.54 235.448 306.42 235.448ZM316.81 225.8H325.786V227.48L321.626 237H318.81L322.826 227.912H319.114V229.736H316.81V225.8ZM338.271 225.128H340.767V237H338.383V236.008C337.759 236.76 336.847 237.128 335.695 237.128C333.263 237.128 331.391 235.4 331.391 232.696C331.391 229.992 333.263 228.264 335.695 228.264C336.751 228.264 337.647 228.6 338.271 229.304V225.128ZM336.127 235.08C337.359 235.08 338.319 234.184 338.319 232.696C338.319 231.208 337.359 230.312 336.127 230.312C334.879 230.312 333.919 231.208 333.919 232.696C333.919 234.184 334.879 235.08 336.127 235.08ZM351.51 232.728C351.51 232.92 351.478 233.192 351.462 233.4H344.95C345.19 234.472 346.102 235.128 347.414 235.128C348.326 235.128 348.982 234.856 349.574 234.296L350.902 235.736C350.102 236.648 348.902 237.128 347.35 237.128C344.374 237.128 342.438 235.256 342.438 232.696C342.438 230.12 344.406 228.264 347.03 228.264C349.558 228.264 351.51 229.96 351.51 232.728ZM347.046 230.152C345.91 230.152 345.094 230.84 344.918 231.944H349.158C348.982 230.856 348.166 230.152 347.046 230.152ZM361.175 228.264C363.799 228.264 365.319 229.48 365.319 232.088V237H362.983V235.928C362.519 236.712 361.623 237.128 360.359 237.128C358.343 237.128 357.143 236.008 357.143 234.52C357.143 233 358.215 231.944 360.839 231.944H362.823C362.823 230.872 362.183 230.248 360.839 230.248C359.927 230.248 358.983 230.552 358.359 231.048L357.463 229.304C358.407 228.632 359.799 228.264 361.175 228.264ZM360.983 235.448C361.815 235.448 362.535 235.064 362.823 234.28V233.4H361.111C359.943 233.4 359.575 233.832 359.575 234.408C359.575 235.032 360.103 235.448 360.983 235.448ZM372.666 228.264C375.082 228.264 376.954 229.992 376.954 232.696C376.954 235.4 375.082 237.128 372.666 237.128C371.514 237.128 370.586 236.76 369.962 236.008V237H367.578V225.128H370.074V229.304C370.714 228.6 371.594 228.264 372.666 228.264ZM372.234 235.08C373.482 235.08 374.426 234.184 374.426 232.696C374.426 231.208 373.482 230.312 372.234 230.312C370.986 230.312 370.042 231.208 370.042 232.696C370.042 234.184 370.986 235.08 372.234 235.08ZM381.008 229.528C381.616 228.696 382.64 228.264 383.968 228.264V230.568C383.76 230.552 383.6 230.536 383.408 230.536C382.032 230.536 381.12 231.288 381.12 232.936V237H378.624V228.392H381.008V229.528ZM386.701 227.192C385.773 227.192 385.149 226.584 385.149 225.8C385.149 225.016 385.773 224.408 386.701 224.408C387.629 224.408 388.253 224.984 388.253 225.752C388.253 226.584 387.629 227.192 386.701 227.192ZM385.453 237V228.392H387.949V237H385.453ZM390.265 237V225.128H392.761V237H390.265ZM405.881 225.128H408.377V237H405.993V236.008C405.369 236.76 404.457 237.128 403.305 237.128C400.873 237.128 399.001 235.4 399.001 232.696C399.001 229.992 400.873 228.264 403.305 228.264C404.361 228.264 405.257 228.6 405.881 229.304V225.128ZM403.737 235.08C404.969 235.08 405.929 234.184 405.929 232.696C405.929 231.208 404.969 230.312 403.737 230.312C402.489 230.312 401.529 231.208 401.529 232.696C401.529 234.184 402.489 235.08 403.737 235.08ZM419.119 232.728C419.119 232.92 419.087 233.192 419.071 233.4H412.559C412.799 234.472 413.711 235.128 415.023 235.128C415.935 235.128 416.591 234.856 417.183 234.296L418.511 235.736C417.711 236.648 416.511 237.128 414.959 237.128C411.983 237.128 410.047 235.256 410.047 232.696C410.047 230.12 412.015 228.264 414.639 228.264C417.167 228.264 419.119 229.96 419.119 232.728ZM414.655 230.152C413.519 230.152 412.703 230.84 412.527 231.944H416.767C416.591 230.856 415.775 230.152 414.655 230.152ZM340.227 252.888H345.043V255H336.579V253.32L340.899 249.24C341.891 248.296 342.067 247.72 342.067 247.176C342.067 246.296 341.459 245.784 340.275 245.784C339.315 245.784 338.499 246.152 337.955 246.904L336.067 245.688C336.931 244.424 338.499 243.608 340.515 243.608C343.011 243.608 344.675 244.888 344.675 246.92C344.675 248.008 344.371 249 342.803 250.456L340.227 252.888ZM350.881 255.192C348.129 255.192 346.081 253.096 346.081 249.4C346.081 245.704 348.129 243.608 350.881 243.608C353.649 243.608 355.681 245.704 355.681 249.4C355.681 253.096 353.649 255.192 350.881 255.192ZM350.881 253C352.177 253 353.073 251.944 353.073 249.4C353.073 246.856 352.177 245.8 350.881 245.8C349.601 245.8 348.705 246.856 348.705 249.4C348.705 251.944 349.601 253 350.881 253ZM360.398 252.888H365.214V255H356.75V253.32L361.07 249.24C362.062 248.296 362.238 247.72 362.238 247.176C362.238 246.296 361.63 245.784 360.446 245.784C359.486 245.784 358.67 246.152 358.126 246.904L356.238 245.688C357.102 244.424 358.67 243.608 360.686 243.608C363.182 243.608 364.846 244.888 364.846 246.92C364.846 248.008 364.542 249 362.974 250.456L360.398 252.888ZM376.384 250.536V252.648H374.56V255H372.032V252.648H366V250.904L371.28 243.8H374L369.104 250.536H372.112V248.44H374.56V250.536H376.384ZM378.943 255.128C378.079 255.128 377.391 254.472 377.391 253.56C377.391 252.632 378.079 252.024 378.943 252.024C379.807 252.024 380.495 252.632 380.495 253.56C380.495 254.472 379.807 255.128 378.943 255.128Z" fill="#003F3F"/>
<path d="M308.83 143.192C305.294 143.192 302.702 140.728 302.702 137.4C302.702 134.072 305.294 131.608 308.83 131.608C312.35 131.608 314.958 134.056 314.958 137.4C314.958 140.744 312.35 143.192 308.83 143.192ZM308.83 140.984C310.83 140.984 312.334 139.528 312.334 137.4C312.334 135.272 310.83 133.816 308.83 133.816C306.83 133.816 305.326 135.272 305.326 137.4C305.326 139.528 306.83 140.984 308.83 140.984ZM334.061 143H331.629L331.613 136.28L328.317 141.816H327.149L323.869 136.424V143H321.437V131.8H323.581L327.773 138.76L331.901 131.8H334.029L334.061 143ZM344.975 138.728C344.975 138.92 344.943 139.192 344.927 139.4H338.415C338.655 140.472 339.567 141.128 340.879 141.128C341.791 141.128 342.447 140.856 343.039 140.296L344.367 141.736C343.567 142.648 342.367 143.128 340.815 143.128C337.839 143.128 335.903 141.256 335.903 138.696C335.903 136.12 337.871 134.264 340.495 134.264C343.023 134.264 344.975 135.96 344.975 138.728ZM340.511 136.152C339.375 136.152 338.559 136.84 338.383 137.944H342.623C342.447 136.856 341.631 136.152 340.511 136.152ZM349.02 135.528C349.628 134.696 350.652 134.264 351.98 134.264V136.568C351.772 136.552 351.612 136.536 351.42 136.536C350.044 136.536 349.132 137.288 349.132 138.936V143H346.636V134.392H349.02V135.528ZM357.546 143.128C354.746 143.128 352.746 141.288 352.746 138.696C352.746 136.104 354.746 134.264 357.546 134.264C359.354 134.264 360.778 135.048 361.402 136.456L359.466 137.496C359.002 136.68 358.314 136.312 357.53 136.312C356.266 136.312 355.274 137.192 355.274 138.696C355.274 140.2 356.266 141.08 357.53 141.08C358.314 141.08 359.002 140.728 359.466 139.896L361.402 140.952C360.778 142.328 359.354 143.128 357.546 143.128ZM366.312 134.264C368.936 134.264 370.456 135.48 370.456 138.088V143H368.12V141.928C367.656 142.712 366.76 143.128 365.496 143.128C363.48 143.128 362.28 142.008 362.28 140.52C362.28 139 363.352 137.944 365.976 137.944H367.96C367.96 136.872 367.32 136.248 365.976 136.248C365.064 136.248 364.12 136.552 363.496 137.048L362.6 135.304C363.544 134.632 364.936 134.264 366.312 134.264ZM366.12 141.448C366.952 141.448 367.672 141.064 367.96 140.28V139.4H366.248C365.08 139.4 364.712 139.832 364.712 140.408C364.712 141.032 365.24 141.448 366.12 141.448ZM379.08 131.128H381.576V143H379.192V142.008C378.568 142.76 377.656 143.128 376.504 143.128C374.072 143.128 372.2 141.4 372.2 138.696C372.2 135.992 374.072 134.264 376.504 134.264C377.56 134.264 378.456 134.6 379.08 135.304V131.128ZM376.936 141.08C378.168 141.08 379.128 140.184 379.128 138.696C379.128 137.208 378.168 136.312 376.936 136.312C375.688 136.312 374.728 137.208 374.728 138.696C374.728 140.184 375.688 141.08 376.936 141.08ZM387.982 143.128C385.246 143.128 383.246 141.288 383.246 138.696C383.246 136.104 385.246 134.264 387.982 134.264C390.718 134.264 392.702 136.104 392.702 138.696C392.702 141.288 390.718 143.128 387.982 143.128ZM387.982 141.08C389.23 141.08 390.174 140.184 390.174 138.696C390.174 137.208 389.23 136.312 387.982 136.312C386.734 136.312 385.774 137.208 385.774 138.696C385.774 140.184 386.734 141.08 387.982 141.08ZM405.174 131.128H407.67V143H405.286V142.008C404.662 142.76 403.75 143.128 402.598 143.128C400.166 143.128 398.294 141.4 398.294 138.696C398.294 135.992 400.166 134.264 402.598 134.264C403.654 134.264 404.55 134.6 405.174 135.304V131.128ZM403.03 141.08C404.262 141.08 405.222 140.184 405.222 138.696C405.222 137.208 404.262 136.312 403.03 136.312C401.782 136.312 400.822 137.208 400.822 138.696C400.822 140.184 401.782 141.08 403.03 141.08ZM418.412 138.728C418.412 138.92 418.38 139.192 418.364 139.4H411.852C412.092 140.472 413.004 141.128 414.316 141.128C415.228 141.128 415.884 140.856 416.476 140.296L417.804 141.736C417.004 142.648 415.804 143.128 414.252 143.128C411.276 143.128 409.34 141.256 409.34 138.696C409.34 136.12 411.308 134.264 413.932 134.264C416.46 134.264 418.412 135.96 418.412 138.728ZM413.948 136.152C412.812 136.152 411.996 136.84 411.82 137.944H416.06C415.884 136.856 415.068 136.152 413.948 136.152ZM315.82 161V149.8H320.908C324.572 149.8 327.084 152.008 327.084 155.4C327.084 158.792 324.572 161 320.908 161H315.82ZM318.412 158.872H320.78C323.004 158.872 324.46 157.544 324.46 155.4C324.46 153.256 323.004 151.928 320.78 151.928H318.412V158.872ZM337.295 156.728C337.295 156.92 337.263 157.192 337.247 157.4H330.735C330.975 158.472 331.887 159.128 333.199 159.128C334.111 159.128 334.767 158.856 335.359 158.296L336.687 159.736C335.887 160.648 334.687 161.128 333.135 161.128C330.159 161.128 328.223 159.256 328.223 156.696C328.223 154.12 330.191 152.264 332.815 152.264C335.343 152.264 337.295 153.96 337.295 156.728ZM332.831 154.152C331.695 154.152 330.879 154.84 330.703 155.944H334.943C334.767 154.856 333.951 154.152 332.831 154.152ZM338.957 161V149.128H341.453V161H338.957ZM345.017 151.192C344.089 151.192 343.465 150.584 343.465 149.8C343.465 149.016 344.089 148.408 345.017 148.408C345.945 148.408 346.569 148.984 346.569 149.752C346.569 150.584 345.945 151.192 345.017 151.192ZM343.769 161V152.392H346.265V161H343.769ZM352.742 161.128C349.942 161.128 347.942 159.288 347.942 156.696C347.942 154.104 349.942 152.264 352.742 152.264C354.55 152.264 355.974 153.048 356.598 154.456L354.662 155.496C354.198 154.68 353.51 154.312 352.726 154.312C351.462 154.312 350.47 155.192 350.47 156.696C350.47 158.2 351.462 159.08 352.726 159.08C353.51 159.08 354.198 158.728 354.662 157.896L356.598 158.952C355.974 160.328 354.55 161.128 352.742 161.128ZM361.507 152.264C364.131 152.264 365.651 153.48 365.651 156.088V161H363.315V159.928C362.851 160.712 361.955 161.128 360.691 161.128C358.675 161.128 357.475 160.008 357.475 158.52C357.475 157 358.547 155.944 361.171 155.944H363.155C363.155 154.872 362.515 154.248 361.171 154.248C360.259 154.248 359.315 154.552 358.691 155.048L357.795 153.304C358.739 152.632 360.131 152.264 361.507 152.264ZM361.315 159.448C362.147 159.448 362.867 159.064 363.155 158.28V157.4H361.443C360.275 157.4 359.907 157.832 359.907 158.408C359.907 159.032 360.435 159.448 361.315 159.448ZM374.276 149.128H376.772V161H374.388V160.008C373.764 160.76 372.852 161.128 371.7 161.128C369.268 161.128 367.396 159.4 367.396 156.696C367.396 153.992 369.268 152.264 371.7 152.264C372.756 152.264 373.652 152.6 374.276 153.304V149.128ZM372.132 159.08C373.364 159.08 374.324 158.184 374.324 156.696C374.324 155.208 373.364 154.312 372.132 154.312C370.884 154.312 369.924 155.208 369.924 156.696C369.924 158.184 370.884 159.08 372.132 159.08ZM387.514 156.728C387.514 156.92 387.482 157.192 387.466 157.4H380.954C381.194 158.472 382.106 159.128 383.418 159.128C384.33 159.128 384.986 158.856 385.578 158.296L386.906 159.736C386.106 160.648 384.906 161.128 383.354 161.128C380.378 161.128 378.442 159.256 378.442 156.696C378.442 154.12 380.41 152.264 383.034 152.264C385.562 152.264 387.514 153.96 387.514 156.728ZM383.05 154.152C381.914 154.152 381.098 154.84 380.922 155.944H385.162C384.986 154.856 384.17 154.152 383.05 154.152ZM391.657 159.08H396.185V161H388.505V159.496L392.889 154.312H388.617V152.392H396.041V153.896L391.657 159.08ZM401.257 152.264C403.881 152.264 405.401 153.48 405.401 156.088V161H403.065V159.928C402.601 160.712 401.705 161.128 400.441 161.128C398.425 161.128 397.225 160.008 397.225 158.52C397.225 157 398.297 155.944 400.921 155.944H402.905C402.905 154.872 402.265 154.248 400.921 154.248C400.009 154.248 399.065 154.552 398.441 155.048L397.545 153.304C398.489 152.632 399.881 152.264 401.257 152.264ZM401.065 159.448C401.897 159.448 402.617 159.064 402.905 158.28V157.4H401.193C400.025 157.4 399.657 157.832 399.657 158.408C399.657 159.032 400.185 159.448 401.065 159.448Z" fill="#003F3F"/>
<path d="M695.728 219H511V269H695.728V219Z" fill="#003F3F" stroke="#003F3F" stroke-miterlimit="10"/>
<path d="M695.728 270H511V380H695.728V270Z" stroke="#F7A534" stroke-miterlimit="10"/>
<path d="M538.437 320V308.8H543.525C547.189 308.8 549.701 311.008 549.701 314.4C549.701 317.792 547.189 320 543.525 320H538.437ZM541.029 317.872H543.397C545.621 317.872 547.077 316.544 547.077 314.4C547.077 312.256 545.621 310.928 543.397 310.928H541.029V317.872ZM559.912 315.728C559.912 315.92 559.88 316.192 559.864 316.4H553.352C553.592 317.472 554.504 318.128 555.816 318.128C556.728 318.128 557.384 317.856 557.976 317.296L559.304 318.736C558.504 319.648 557.304 320.128 555.752 320.128C552.776 320.128 550.84 318.256 550.84 315.696C550.84 313.12 552.808 311.264 555.432 311.264C557.96 311.264 559.912 312.96 559.912 315.728ZM555.448 313.152C554.312 313.152 553.496 313.84 553.32 314.944H557.56C557.384 313.856 556.568 313.152 555.448 313.152ZM570.809 313.36C572.825 313.68 573.849 314.928 573.849 316.576C573.849 318.464 572.393 320.192 569.209 320.192C567.641 320.192 566.025 319.76 564.937 318.992L565.945 317.008C566.793 317.648 567.977 318.016 569.145 318.016C570.441 318.016 571.241 317.488 571.241 316.576C571.241 315.728 570.617 315.2 569.145 315.2H567.961V313.488L570.265 310.88H565.497V308.8H573.337V310.48L570.809 313.36ZM583.577 311.264C586.201 311.264 587.721 312.48 587.721 315.088V320H585.385V318.928C584.921 319.712 584.025 320.128 582.761 320.128C580.745 320.128 579.545 319.008 579.545 317.52C579.545 316 580.617 314.944 583.241 314.944H585.225C585.225 313.872 584.585 313.248 583.241 313.248C582.329 313.248 581.385 313.552 580.761 314.048L579.865 312.304C580.809 311.632 582.201 311.264 583.577 311.264ZM583.385 318.448C584.217 318.448 584.937 318.064 585.225 317.28V316.4H583.513C582.345 316.4 581.977 316.832 581.977 317.408C581.977 318.032 582.505 318.448 583.385 318.448ZM593.775 308.8H602.751V310.48L598.591 320H595.775L599.791 310.912H596.079V312.736H593.775V308.8ZM615.237 308.128H617.733V320H615.349V319.008C614.725 319.76 613.813 320.128 612.661 320.128C610.229 320.128 608.357 318.4 608.357 315.696C608.357 312.992 610.229 311.264 612.661 311.264C613.717 311.264 614.613 311.6 615.237 312.304V308.128ZM613.093 318.08C614.325 318.08 615.285 317.184 615.285 315.696C615.285 314.208 614.325 313.312 613.093 313.312C611.845 313.312 610.885 314.208 610.885 315.696C610.885 317.184 611.845 318.08 613.093 318.08ZM628.475 315.728C628.475 315.92 628.443 316.192 628.427 316.4H621.915C622.155 317.472 623.067 318.128 624.379 318.128C625.291 318.128 625.947 317.856 626.539 317.296L627.867 318.736C627.067 319.648 625.867 320.128 624.315 320.128C621.339 320.128 619.403 318.256 619.403 315.696C619.403 313.12 621.371 311.264 623.995 311.264C626.523 311.264 628.475 312.96 628.475 315.728ZM624.011 313.152C622.875 313.152 622.059 313.84 621.883 314.944H626.123C625.947 313.856 625.131 313.152 624.011 313.152ZM638.14 311.264C640.764 311.264 642.284 312.48 642.284 315.088V320H639.948V318.928C639.484 319.712 638.588 320.128 637.324 320.128C635.308 320.128 634.108 319.008 634.108 317.52C634.108 316 635.18 314.944 637.804 314.944H639.788C639.788 313.872 639.148 313.248 637.804 313.248C636.892 313.248 635.948 313.552 635.324 314.048L634.428 312.304C635.372 311.632 636.764 311.264 638.14 311.264ZM637.948 318.448C638.78 318.448 639.5 318.064 639.788 317.28V316.4H638.076C636.908 316.4 636.54 316.832 636.54 317.408C636.54 318.032 637.068 318.448 637.948 318.448ZM649.631 311.264C652.047 311.264 653.919 312.992 653.919 315.696C653.919 318.4 652.047 320.128 649.631 320.128C648.479 320.128 647.551 319.76 646.927 319.008V320H644.543V308.128H647.039V312.304C647.679 311.6 648.559 311.264 649.631 311.264ZM649.199 318.08C650.447 318.08 651.391 317.184 651.391 315.696C651.391 314.208 650.447 313.312 649.199 313.312C647.951 313.312 647.007 314.208 647.007 315.696C647.007 317.184 647.951 318.08 649.199 318.08ZM657.974 312.528C658.582 311.696 659.606 311.264 660.934 311.264V313.568C660.726 313.552 660.566 313.536 660.374 313.536C658.998 313.536 658.086 314.288 658.086 315.936V320H655.59V311.392H657.974V312.528ZM663.666 310.192C662.738 310.192 662.114 309.584 662.114 308.8C662.114 308.016 662.738 307.408 663.666 307.408C664.594 307.408 665.218 307.984 665.218 308.752C665.218 309.584 664.594 310.192 663.666 310.192ZM662.418 320V311.392H664.914V320H662.418ZM667.23 320V308.128H669.726V320H667.23ZM576.08 326.128H578.576V338H576.192V337.008C575.568 337.76 574.656 338.128 573.504 338.128C571.072 338.128 569.2 336.4 569.2 333.696C569.2 330.992 571.072 329.264 573.504 329.264C574.56 329.264 575.456 329.6 576.08 330.304V326.128ZM573.936 336.08C575.168 336.08 576.128 335.184 576.128 333.696C576.128 332.208 575.168 331.312 573.936 331.312C572.688 331.312 571.728 332.208 571.728 333.696C571.728 335.184 572.688 336.08 573.936 336.08ZM589.318 333.728C589.318 333.92 589.286 334.192 589.27 334.4H582.758C582.998 335.472 583.91 336.128 585.222 336.128C586.134 336.128 586.79 335.856 587.382 335.296L588.71 336.736C587.91 337.648 586.71 338.128 585.158 338.128C582.182 338.128 580.246 336.256 580.246 333.696C580.246 331.12 582.214 329.264 584.838 329.264C587.366 329.264 589.318 330.96 589.318 333.728ZM584.854 331.152C583.718 331.152 582.902 331.84 582.726 332.944H586.966C586.79 331.856 585.974 331.152 584.854 331.152ZM598.535 335.888H603.351V338H594.887V336.32L599.207 332.24C600.199 331.296 600.375 330.72 600.375 330.176C600.375 329.296 599.767 328.784 598.583 328.784C597.623 328.784 596.807 329.152 596.263 329.904L594.375 328.688C595.239 327.424 596.807 326.608 598.823 326.608C601.319 326.608 602.983 327.888 602.983 329.92C602.983 331.008 602.679 332 601.111 333.456L598.535 335.888ZM609.19 338.192C606.438 338.192 604.39 336.096 604.39 332.4C604.39 328.704 606.438 326.608 609.19 326.608C611.958 326.608 613.99 328.704 613.99 332.4C613.99 336.096 611.958 338.192 609.19 338.192ZM609.19 336C610.486 336 611.382 334.944 611.382 332.4C611.382 329.856 610.486 328.8 609.19 328.8C607.91 328.8 607.014 329.856 607.014 332.4C607.014 334.944 607.91 336 609.19 336ZM618.707 335.888H623.523V338H615.059V336.32L619.379 332.24C620.371 331.296 620.547 330.72 620.547 330.176C620.547 329.296 619.939 328.784 618.755 328.784C617.795 328.784 616.979 329.152 616.435 329.904L614.547 328.688C615.411 327.424 616.979 326.608 618.995 326.608C621.491 326.608 623.155 327.888 623.155 329.92C623.155 331.008 622.851 332 621.283 333.456L618.707 335.888ZM634.693 333.536V335.648H632.869V338H630.341V335.648H624.309V333.904L629.589 326.8H632.309L627.413 333.536H630.421V331.44H632.869V333.536H634.693ZM637.252 338.128C636.388 338.128 635.7 337.472 635.7 336.56C635.7 335.632 636.388 335.024 637.252 335.024C638.116 335.024 638.804 335.632 638.804 336.56C638.804 337.472 638.116 338.128 637.252 338.128Z" fill="#003F3F"/>
<path d="M545.162 237.92H551.258V240H542.586V228.8H551.05V230.88H545.162V233.312H550.362V235.328H545.162V237.92ZM559.21 231.392H561.61L557.978 240H555.402L551.786 231.392H554.362L556.746 237.248L559.21 231.392ZM570.826 235.728C570.826 235.92 570.794 236.192 570.778 236.4H564.266C564.506 237.472 565.418 238.128 566.73 238.128C567.642 238.128 568.298 237.856 568.89 237.296L570.218 238.736C569.418 239.648 568.218 240.128 566.666 240.128C563.69 240.128 561.754 238.256 561.754 235.696C561.754 233.12 563.722 231.264 566.346 231.264C568.874 231.264 570.826 232.96 570.826 235.728ZM566.362 233.152C565.226 233.152 564.41 233.84 564.234 234.944H568.474C568.298 233.856 567.482 233.152 566.362 233.152ZM577.72 231.264C579.752 231.264 581.288 232.448 581.288 235.072V240H578.792V235.456C578.792 234.064 578.152 233.424 577.048 233.424C575.848 233.424 574.984 234.16 574.984 235.744V240H572.488V231.392H574.872V232.4C575.544 231.664 576.552 231.264 577.72 231.264ZM588.43 237.824L589.102 239.584C588.59 239.952 587.838 240.128 587.07 240.128C585.038 240.128 583.854 239.088 583.854 237.04V233.504H582.526V231.584H583.854V229.488H586.35V231.584H588.494V233.504H586.35V237.008C586.35 237.744 586.75 238.144 587.422 238.144C587.79 238.144 588.158 238.032 588.43 237.824ZM594.334 240.128C591.598 240.128 589.598 238.288 589.598 235.696C589.598 233.104 591.598 231.264 594.334 231.264C597.07 231.264 599.054 233.104 599.054 235.696C599.054 238.288 597.07 240.128 594.334 240.128ZM594.334 238.08C595.582 238.08 596.526 237.184 596.526 235.696C596.526 234.208 595.582 233.312 594.334 233.312C593.086 233.312 592.126 234.208 592.126 235.696C592.126 237.184 593.086 238.08 594.334 238.08ZM611.526 228.128H614.022V240H611.638V239.008C611.014 239.76 610.102 240.128 608.95 240.128C606.518 240.128 604.646 238.4 604.646 235.696C604.646 232.992 606.518 231.264 608.95 231.264C610.006 231.264 610.902 231.6 611.526 232.304V228.128ZM609.382 238.08C610.614 238.08 611.574 237.184 611.574 235.696C611.574 234.208 610.614 233.312 609.382 233.312C608.134 233.312 607.174 234.208 607.174 235.696C607.174 237.184 608.134 238.08 609.382 238.08ZM619.804 231.264C622.428 231.264 623.948 232.48 623.948 235.088V240H621.612V238.928C621.148 239.712 620.252 240.128 618.988 240.128C616.972 240.128 615.772 239.008 615.772 237.52C615.772 236 616.844 234.944 619.468 234.944H621.452C621.452 233.872 620.812 233.248 619.468 233.248C618.556 233.248 617.612 233.552 616.988 234.048L616.092 232.304C617.036 231.632 618.428 231.264 619.804 231.264ZM619.612 238.448C620.444 238.448 621.164 238.064 621.452 237.28V236.4H619.74C618.572 236.4 618.204 236.832 618.204 237.408C618.204 238.032 618.732 238.448 619.612 238.448ZM639.282 240L638.29 237.6H633.09L632.098 240H629.442L634.434 228.8H636.994L642.002 240H639.282ZM633.922 235.632H637.474L635.698 231.344L633.922 235.632ZM645.372 232.528C645.98 231.696 647.004 231.264 648.332 231.264V233.568C648.124 233.552 647.964 233.536 647.772 233.536C646.396 233.536 645.484 234.288 645.484 235.936V240H642.988V231.392H645.372V232.528ZM654.993 237.824L655.665 239.584C655.153 239.952 654.401 240.128 653.633 240.128C651.601 240.128 650.417 239.088 650.417 237.04V233.504H649.089V231.584H650.417V229.488H652.913V231.584H655.057V233.504H652.913V237.008C652.913 237.744 653.313 238.144 653.985 238.144C654.353 238.144 654.721 238.032 654.993 237.824ZM665.232 235.728C665.232 235.92 665.2 236.192 665.184 236.4H658.672C658.912 237.472 659.824 238.128 661.136 238.128C662.048 238.128 662.704 237.856 663.296 237.296L664.624 238.736C663.824 239.648 662.624 240.128 661.072 240.128C658.096 240.128 656.16 238.256 656.16 235.696C656.16 233.12 658.128 231.264 660.752 231.264C663.28 231.264 665.232 232.96 665.232 235.728ZM660.768 233.152C659.632 233.152 658.816 233.84 658.64 234.944H662.88C662.704 233.856 661.888 233.152 660.768 233.152ZM574.506 253.728C574.506 253.92 574.474 254.192 574.458 254.4H567.946C568.186 255.472 569.098 256.128 570.41 256.128C571.322 256.128 571.978 255.856 572.57 255.296L573.898 256.736C573.098 257.648 571.898 258.128 570.346 258.128C567.37 258.128 565.434 256.256 565.434 253.696C565.434 251.12 567.402 249.264 570.026 249.264C572.554 249.264 574.506 250.96 574.506 253.728ZM570.042 251.152C568.906 251.152 568.09 251.84 567.914 252.944H572.154C571.978 251.856 571.162 251.152 570.042 251.152ZM586.235 258.192C582.763 258.192 580.171 255.776 580.171 252.4C580.171 249.024 582.763 246.608 586.251 246.608C588.187 246.608 589.803 247.312 590.859 248.592L589.195 250.128C588.443 249.264 587.499 248.816 586.379 248.816C584.283 248.816 582.795 250.288 582.795 252.4C582.795 254.512 584.283 255.984 586.379 255.984C587.499 255.984 588.443 255.536 589.195 254.656L590.859 256.192C589.803 257.488 588.187 258.192 586.235 258.192ZM598.391 249.392H600.887V258H598.519V256.976C597.863 257.728 596.903 258.128 595.847 258.128C593.687 258.128 592.167 256.912 592.167 254.256V249.392H594.663V253.888C594.663 255.328 595.303 255.968 596.407 255.968C597.559 255.968 598.391 255.232 598.391 253.648V249.392ZM603.199 258V246.128H605.695V258H603.199ZM613.516 255.824L614.188 257.584C613.676 257.952 612.924 258.128 612.156 258.128C610.124 258.128 608.94 257.088 608.94 255.04V251.504H607.612V249.584H608.94V247.488H611.436V249.584H613.58V251.504H611.436V255.008C611.436 255.744 611.836 256.144 612.508 256.144C612.876 256.144 613.244 256.032 613.516 255.824ZM621.766 249.392H624.262V258H621.894V256.976C621.238 257.728 620.278 258.128 619.222 258.128C617.062 258.128 615.542 256.912 615.542 254.256V249.392H618.038V253.888C618.038 255.328 618.678 255.968 619.782 255.968C620.934 255.968 621.766 255.232 621.766 253.648V249.392ZM628.958 250.528C629.566 249.696 630.59 249.264 631.918 249.264V251.568C631.71 251.552 631.55 251.536 631.358 251.536C629.982 251.536 629.07 252.288 629.07 253.936V258H626.574V249.392H628.958V250.528ZM636.827 249.264C639.451 249.264 640.971 250.48 640.971 253.088V258H638.635V256.928C638.171 257.712 637.275 258.128 636.011 258.128C633.995 258.128 632.795 257.008 632.795 255.52C632.795 254 633.867 252.944 636.491 252.944H638.475C638.475 251.872 637.835 251.248 636.491 251.248C635.579 251.248 634.635 251.552 634.011 252.048L633.115 250.304C634.059 249.632 635.451 249.264 636.827 249.264ZM636.635 256.448C637.467 256.448 638.187 256.064 638.475 255.28V254.4H636.763C635.595 254.4 635.227 254.832 635.227 255.408C635.227 256.032 635.755 256.448 636.635 256.448Z" fill="#F7A534"/>
</svg>
