<svg width="1349" height="390" viewBox="0 0 1349 390" fill="none" xmlns="http://www.w3.org/2000/svg">
<path d="M1235 0H1121V113.909H1235V0Z" fill="#022E30"/>
<path d="M1178 11.7258C1153 11.7258 1132.74 31.9766 1132.74 56.9516C1132.74 81.9341 1153 102.183 1178 102.183C1203 102.183 1223.26 81.9341 1223.26 56.9516C1223.26 31.9766 1203 11.7258 1178 11.7258Z" fill="white"/>
<path d="M1178 91.0995C1159.16 91.0995 1143.83 75.7822 1143.83 56.9517C1143.83 38.1266 1159.16 22.8094 1178 22.8094C1196.84 22.8094 1212.17 38.1266 1212.17 56.9517C1212.17 75.7822 1196.84 91.0995 1178 91.0995Z" fill="#F7A534"/>
<path d="M1178 26.4513C1161.17 26.4513 1147.47 40.135 1147.47 56.9516C1147.47 73.772 1161.17 87.4576 1178 87.4576C1194.83 87.4576 1208.53 73.772 1208.53 56.9516C1208.53 40.135 1194.83 26.4513 1178 26.4513Z" fill="white"/>
<path d="M1349 114.594H1235V228.503H1349V114.594Z" fill="#F7A534"/>
<path d="M1285.89 208.585H1349V134.512H1285.89C1265.42 134.512 1248.82 151.094 1248.82 171.548C1248.82 192.003 1265.42 208.585 1285.89 208.585Z" fill="#022E30"/>
<path d="M1285.89 196.602H1349V146.495H1285.89C1272.04 146.495 1260.82 157.711 1260.82 171.548C1260.82 185.385 1272.04 196.602 1285.89 196.602Z" fill="#F7A534"/>
<path d="M1287.57 189.57H1349V153.527H1287.57C1277.61 153.527 1269.54 161.595 1269.54 171.548C1269.54 181.501 1277.61 189.57 1287.57 189.57Z" fill="white"/>
<path d="M6.10352e-05 348.412H114L114 234.503H6.10352e-05L6.10352e-05 348.412Z" fill="#022E30"/>
<path d="M101.287 291.457L57 247.205L12.7128 291.457L57.0001 335.709L101.287 291.457Z" fill="#F7A534"/>
<path d="M56.9999 314.065C69.4958 314.065 79.6258 303.943 79.6258 291.457C79.6258 278.971 69.4958 268.849 56.9999 268.849C44.5039 268.849 34.374 278.971 34.374 291.457C34.374 303.943 44.5039 314.065 56.9999 314.065Z" fill="white"/>
<path d="M424 71H114V121H424V71Z" fill="#003F3F" stroke="#003F3F" stroke-width="0.75" stroke-miterlimit="10"/>
<path d="M424 121H114V231H424V121Z" stroke="#F7A534" stroke-miterlimit="10"/>
<path d="M167.185 174V160H173.545C178.125 160 181.265 162.76 181.265 167C181.265 171.24 178.125 174 173.545 174H167.185ZM170.425 171.34H173.385C176.165 171.34 177.985 169.68 177.985 167C177.985 164.32 176.165 162.66 173.385 162.66H170.425V171.34ZM194.029 168.66C194.029 168.9 193.989 169.24 193.969 169.5H185.829C186.129 170.84 187.269 171.66 188.909 171.66C190.049 171.66 190.869 171.32 191.609 170.62L193.269 172.42C192.269 173.56 190.769 174.16 188.829 174.16C185.109 174.16 182.689 171.82 182.689 168.62C182.689 165.4 185.149 163.08 188.429 163.08C191.589 163.08 194.029 165.2 194.029 168.66ZM188.449 165.44C187.029 165.44 186.009 166.3 185.789 167.68H191.089C190.869 166.32 189.849 165.44 188.449 165.44ZM200.47 160H206.51V174H203.27V162.6H200.47V160ZM213.742 165.26C217.882 165.26 219.522 167.12 219.522 169.6C219.522 172.08 217.702 174.24 213.702 174.24C211.762 174.24 209.722 173.7 208.362 172.74L209.642 170.26C210.702 171.06 212.162 171.52 213.622 171.52C215.242 171.52 216.242 170.84 216.242 169.7C216.242 168.6 215.522 167.88 212.982 167.88H209.402L210.122 160H218.662V162.6H212.822L212.602 165.26H213.742ZM231.501 163.08C234.781 163.08 236.681 164.6 236.681 167.86V174H233.761V172.66C233.181 173.64 232.061 174.16 230.481 174.16C227.961 174.16 226.461 172.76 226.461 170.9C226.461 169 227.801 167.68 231.081 167.68H233.561C233.561 166.34 232.761 165.56 231.081 165.56C229.941 165.56 228.761 165.94 227.981 166.56L226.861 164.38C228.041 163.54 229.781 163.08 231.501 163.08ZM231.261 172.06C232.301 172.06 233.201 171.58 233.561 170.6V169.5H231.421C229.961 169.5 229.501 170.04 229.501 170.76C229.501 171.54 230.161 172.06 231.261 172.06ZM251.049 165.7C253.569 166.1 254.849 167.66 254.849 169.72C254.849 172.08 253.029 174.24 249.049 174.24C247.089 174.24 245.069 173.7 243.709 172.74L244.969 170.26C246.029 171.06 247.509 171.52 248.969 171.52C250.589 171.52 251.589 170.86 251.589 169.72C251.589 168.66 250.809 168 248.969 168H247.489V165.86L250.369 162.6H244.409V160H254.209V162.1L251.049 165.7ZM262.344 174.24C258.904 174.24 256.344 171.62 256.344 167C256.344 162.38 258.904 159.76 262.344 159.76C265.804 159.76 268.344 162.38 268.344 167C268.344 171.62 265.804 174.24 262.344 174.24ZM262.344 171.5C263.964 171.5 265.084 170.18 265.084 167C265.084 163.82 263.964 162.5 262.344 162.5C260.744 162.5 259.624 163.82 259.624 167C259.624 170.18 260.744 171.5 262.344 171.5ZM284.083 159.16H287.203V174H284.223V172.76C283.443 173.7 282.303 174.16 280.863 174.16C277.823 174.16 275.483 172 275.483 168.62C275.483 165.24 277.823 163.08 280.863 163.08C282.183 163.08 283.303 163.5 284.083 164.38V159.16ZM281.403 171.6C282.943 171.6 284.143 170.48 284.143 168.62C284.143 166.76 282.943 165.64 281.403 165.64C279.843 165.64 278.643 166.76 278.643 168.62C278.643 170.48 279.843 171.6 281.403 171.6ZM300.63 168.66C300.63 168.9 300.59 169.24 300.57 169.5H292.43C292.73 170.84 293.87 171.66 295.51 171.66C296.65 171.66 297.47 171.32 298.21 170.62L299.87 172.42C298.87 173.56 297.37 174.16 295.43 174.16C291.71 174.16 289.29 171.82 289.29 168.62C289.29 165.4 291.75 163.08 295.03 163.08C298.19 163.08 300.63 165.2 300.63 168.66ZM295.05 165.44C293.63 165.44 292.61 166.3 292.39 167.68H297.69C297.47 166.32 296.45 165.44 295.05 165.44ZM322.152 163.08C324.712 163.08 326.552 164.56 326.552 167.84V174H323.432V168.32C323.432 166.58 322.652 165.78 321.392 165.78C319.992 165.78 319.012 166.68 319.012 168.6V174H315.892V168.32C315.892 166.58 315.152 165.78 313.852 165.78C312.472 165.78 311.492 166.68 311.492 168.6V174H308.372V163.24H311.352V164.48C312.152 163.56 313.352 163.08 314.732 163.08C316.232 163.08 317.512 163.66 318.272 164.84C319.132 163.74 320.532 163.08 322.152 163.08ZM333.688 163.08C336.968 163.08 338.868 164.6 338.868 167.86V174H335.948V172.66C335.368 173.64 334.248 174.16 332.668 174.16C330.148 174.16 328.648 172.76 328.648 170.9C328.648 169 329.988 167.68 333.268 167.68H335.748C335.748 166.34 334.948 165.56 333.268 165.56C332.128 165.56 330.948 165.94 330.168 166.56L329.048 164.38C330.228 163.54 331.968 163.08 333.688 163.08ZM333.448 172.06C334.488 172.06 335.388 171.58 335.748 170.6V169.5H333.608C332.148 169.5 331.688 170.04 331.688 170.76C331.688 171.54 332.348 172.06 333.448 172.06ZM344.672 164.66C345.432 163.62 346.712 163.08 348.372 163.08V165.96C348.112 165.94 347.912 165.92 347.672 165.92C345.952 165.92 344.812 166.86 344.812 168.92V174H341.692V163.24H344.672V164.66ZM355.309 171.6C356.289 171.6 357.149 171.16 357.729 170.12L360.149 171.44C359.409 173.1 357.729 174.08 355.589 174.16L355.389 175C356.609 175.14 357.129 175.84 357.129 176.66C357.129 177.88 355.969 178.64 354.189 178.64C353.489 178.64 352.789 178.48 352.329 178.22L352.809 176.88C353.189 177.06 353.629 177.18 354.109 177.18C354.849 177.18 355.149 176.92 355.149 176.54C355.149 176.2 354.869 175.96 354.169 175.96H353.489L353.969 174.04C351.189 173.52 349.329 171.42 349.329 168.62C349.329 165.38 351.829 163.08 355.329 163.08C357.589 163.08 359.369 164.06 360.149 165.82L357.729 167.12C357.149 166.1 356.289 165.64 355.309 165.64C353.729 165.64 352.489 166.74 352.489 168.62C352.489 170.5 353.729 171.6 355.309 171.6ZM366.929 174.16C363.509 174.16 361.009 171.86 361.009 168.62C361.009 165.38 363.509 163.08 366.929 163.08C370.349 163.08 372.829 165.38 372.829 168.62C372.829 171.86 370.349 174.16 366.929 174.16ZM366.929 171.6C368.489 171.6 369.669 170.48 369.669 168.62C369.669 166.76 368.489 165.64 366.929 165.64C365.369 165.64 364.169 166.76 364.169 168.62C364.169 170.48 365.369 171.6 366.929 171.6ZM231.768 183.16H234.888V198H231.908V196.76C231.128 197.7 229.988 198.16 228.548 198.16C225.508 198.16 223.168 196 223.168 192.62C223.168 189.24 225.508 187.08 228.548 187.08C229.868 187.08 230.988 187.5 231.768 188.38V183.16ZM229.088 195.6C230.628 195.6 231.828 194.48 231.828 192.62C231.828 190.76 230.628 189.64 229.088 189.64C227.528 189.64 226.328 190.76 226.328 192.62C226.328 194.48 227.528 195.6 229.088 195.6ZM248.316 192.66C248.316 192.9 248.276 193.24 248.256 193.5H240.116C240.416 194.84 241.556 195.66 243.196 195.66C244.336 195.66 245.156 195.32 245.896 194.62L247.556 196.42C246.556 197.56 245.056 198.16 243.116 198.16C239.396 198.16 236.976 195.82 236.976 192.62C236.976 189.4 239.436 187.08 242.716 187.08C245.876 187.08 248.316 189.2 248.316 192.66ZM242.736 189.44C241.316 189.44 240.296 190.3 240.076 191.68H245.376C245.156 190.32 244.136 189.44 242.736 189.44ZM259.837 195.36H265.857V198H255.277V195.9L260.677 190.8C261.917 189.62 262.137 188.9 262.137 188.22C262.137 187.12 261.377 186.48 259.897 186.48C258.697 186.48 257.677 186.94 256.997 187.88L254.637 186.36C255.717 184.78 257.677 183.76 260.197 183.76C263.317 183.76 265.397 185.36 265.397 187.9C265.397 189.26 265.017 190.5 263.057 192.32L259.837 195.36ZM273.155 198.24C269.715 198.24 267.155 195.62 267.155 191C267.155 186.38 269.715 183.76 273.155 183.76C276.615 183.76 279.155 186.38 279.155 191C279.155 195.62 276.615 198.24 273.155 198.24ZM273.155 195.5C274.775 195.5 275.895 194.18 275.895 191C275.895 187.82 274.775 186.5 273.155 186.5C271.555 186.5 270.435 187.82 270.435 191C270.435 194.18 271.555 195.5 273.155 195.5ZM285.052 195.36H291.072V198H280.492V195.9L285.892 190.8C287.132 189.62 287.352 188.9 287.352 188.22C287.352 187.12 286.592 186.48 285.112 186.48C283.912 186.48 282.892 186.94 282.212 187.88L279.852 186.36C280.932 184.78 282.892 183.76 285.412 183.76C288.532 183.76 290.612 185.36 290.612 187.9C290.612 189.26 290.232 190.5 288.272 192.32L285.052 195.36ZM305.034 192.42V195.06H302.754V198H299.594V195.06H292.054V192.88L298.654 184H302.054L295.934 192.42H299.694V189.8H302.754V192.42H305.034ZM308.233 198.16C307.153 198.16 306.293 197.34 306.293 196.2C306.293 195.04 307.153 194.28 308.233 194.28C309.313 194.28 310.173 195.04 310.173 196.2C310.173 197.34 309.313 198.16 308.233 198.16Z" fill="#003F3F"/>
<path d="M142.057 101.24C137.717 101.24 134.477 98.22 134.477 94C134.477 89.78 137.717 86.76 142.077 86.76C144.497 86.76 146.517 87.64 147.837 89.24L145.757 91.16C144.817 90.08 143.637 89.52 142.237 89.52C139.617 89.52 137.757 91.36 137.757 94C137.757 96.64 139.617 98.48 142.237 98.48C143.637 98.48 144.817 97.92 145.757 96.82L147.837 98.74C146.517 100.36 144.497 101.24 142.057 101.24ZM157.252 90.24H160.372V101H157.412V99.72C156.592 100.66 155.392 101.16 154.072 101.16C151.372 101.16 149.472 99.64 149.472 96.32V90.24H152.592V95.86C152.592 97.66 153.392 98.46 154.772 98.46C156.212 98.46 157.252 97.54 157.252 95.56V90.24ZM166.242 91.66C167.002 90.62 168.282 90.08 169.942 90.08V92.96C169.682 92.94 169.482 92.92 169.242 92.92C167.522 92.92 166.382 93.86 166.382 95.92V101H163.262V90.24H166.242V91.66ZM175.456 101.16C173.636 101.16 171.796 100.66 170.796 100L171.836 97.76C172.796 98.38 174.256 98.8 175.576 98.8C177.016 98.8 177.556 98.42 177.556 97.82C177.556 96.06 171.056 97.86 171.056 93.56C171.056 91.52 172.896 90.08 176.036 90.08C177.516 90.08 179.156 90.42 180.176 91.02L179.136 93.24C178.076 92.64 177.016 92.44 176.036 92.44C174.636 92.44 174.036 92.88 174.036 93.44C174.036 95.28 180.536 93.5 180.536 97.74C180.536 99.74 178.676 101.16 175.456 101.16ZM187.581 101.16C184.161 101.16 181.661 98.86 181.661 95.62C181.661 92.38 184.161 90.08 187.581 90.08C191.001 90.08 193.481 92.38 193.481 95.62C193.481 98.86 191.001 101.16 187.581 101.16ZM187.581 98.6C189.141 98.6 190.321 97.48 190.321 95.62C190.321 93.76 189.141 92.64 187.581 92.64C186.021 92.64 184.821 93.76 184.821 95.62C184.821 97.48 186.021 98.6 187.581 98.6ZM199.187 101.16C197.367 101.16 195.527 100.66 194.527 100L195.567 97.76C196.527 98.38 197.987 98.8 199.307 98.8C200.747 98.8 201.287 98.42 201.287 97.82C201.287 96.06 194.787 97.86 194.787 93.56C194.787 91.52 196.627 90.08 199.767 90.08C201.247 90.08 202.887 90.42 203.907 91.02L202.867 93.24C201.807 92.64 200.747 92.44 199.767 92.44C198.367 92.44 197.767 92.88 197.767 93.44C197.767 95.28 204.267 93.5 204.267 97.74C204.267 99.74 202.407 101.16 199.187 101.16ZM222.396 95.66C222.396 95.9 222.356 96.24 222.336 96.5H214.196C214.496 97.84 215.636 98.66 217.276 98.66C218.416 98.66 219.236 98.32 219.976 97.62L221.636 99.42C220.636 100.56 219.136 101.16 217.196 101.16C213.476 101.16 211.056 98.82 211.056 95.62C211.056 92.4 213.516 90.08 216.796 90.08C219.956 90.08 222.396 92.2 222.396 95.66ZM216.816 92.44C215.396 92.44 214.376 93.3 214.156 94.68H219.456C219.236 93.32 218.216 92.44 216.816 92.44ZM237.137 101.24C232.717 101.24 229.477 98.16 229.477 94C229.477 89.84 232.717 86.76 237.137 86.76C241.537 86.76 244.797 89.82 244.797 94C244.797 98.18 241.537 101.24 237.137 101.24ZM237.137 98.48C239.637 98.48 241.517 96.66 241.517 94C241.517 91.34 239.637 89.52 237.137 89.52C234.637 89.52 232.757 91.34 232.757 94C232.757 96.66 234.637 98.48 237.137 98.48ZM258.01 88.74C256.85 88.74 256.07 87.98 256.07 87C256.07 86.02 256.85 85.26 258.01 85.26C259.17 85.26 259.95 85.98 259.95 86.94C259.95 87.98 259.17 88.74 258.01 88.74ZM251.95 88.46C251.03 88.46 250.53 88.96 250.53 90.02V90.48H253.29V92.88H250.61V101H247.49V92.88H245.83V90.48H247.49V90C247.49 87.58 248.97 86 251.65 86C252.53 86 253.45 86.18 254.03 86.58L253.21 88.84C252.87 88.6 252.43 88.46 251.95 88.46ZM256.45 101V90.24H259.57V101H256.45ZM267.661 101.16C264.161 101.16 261.661 98.86 261.661 95.62C261.661 92.38 264.161 90.08 267.661 90.08C269.921 90.08 271.701 91.06 272.481 92.82L270.061 94.12C269.481 93.1 268.621 92.64 267.641 92.64C266.061 92.64 264.821 93.74 264.821 95.62C264.821 97.5 266.061 98.6 267.641 98.6C268.621 98.6 269.481 98.16 270.061 97.12L272.481 98.44C271.701 100.16 269.921 101.16 267.661 101.16ZM275.838 88.74C274.678 88.74 273.898 87.98 273.898 87C273.898 86.02 274.678 85.26 275.838 85.26C276.998 85.26 277.778 85.98 277.778 86.94C277.778 87.98 276.998 88.74 275.838 88.74ZM274.278 101V90.24H277.398V101H274.278ZM286.834 90.08C289.374 90.08 291.294 91.56 291.294 94.84V101H288.174V95.32C288.174 93.58 287.374 92.78 285.994 92.78C284.494 92.78 283.414 93.7 283.414 95.68V101H280.294V90.24H283.274V91.5C284.114 90.58 285.374 90.08 286.834 90.08ZM298.462 90.08C301.742 90.08 303.642 91.6 303.642 94.86V101H300.722V99.66C300.142 100.64 299.022 101.16 297.442 101.16C294.922 101.16 293.422 99.76 293.422 97.9C293.422 96 294.762 94.68 298.042 94.68H300.522C300.522 93.34 299.722 92.56 298.042 92.56C296.902 92.56 295.722 92.94 294.942 93.56L293.822 91.38C295.002 90.54 296.742 90.08 298.462 90.08ZM298.222 99.06C299.262 99.06 300.162 98.58 300.522 97.6V96.5H298.382C296.922 96.5 296.462 97.04 296.462 97.76C296.462 98.54 297.122 99.06 298.222 99.06ZM310.085 101.16C308.265 101.16 306.425 100.66 305.425 100L306.465 97.76C307.425 98.38 308.885 98.8 310.205 98.8C311.645 98.8 312.185 98.42 312.185 97.82C312.185 96.06 305.685 97.86 305.685 93.56C305.685 91.52 307.525 90.08 310.665 90.08C312.145 90.08 313.785 90.42 314.805 91.02L313.765 93.24C312.705 92.64 311.645 92.44 310.665 92.44C309.265 92.44 308.665 92.88 308.665 93.44C308.665 95.28 315.165 93.5 315.165 97.74C315.165 99.74 313.305 101.16 310.085 101.16ZM330.594 86.16H333.714V101H330.734V99.76C329.954 100.7 328.814 101.16 327.374 101.16C324.334 101.16 321.994 99 321.994 95.62C321.994 92.24 324.334 90.08 327.374 90.08C328.694 90.08 329.814 90.5 330.594 91.38V86.16ZM327.914 98.6C329.454 98.6 330.654 97.48 330.654 95.62C330.654 93.76 329.454 92.64 327.914 92.64C326.354 92.64 325.154 93.76 325.154 95.62C325.154 97.48 326.354 98.6 327.914 98.6ZM347.142 95.66C347.142 95.9 347.102 96.24 347.082 96.5H338.942C339.242 97.84 340.382 98.66 342.022 98.66C343.162 98.66 343.982 98.32 344.722 97.62L346.382 99.42C345.382 100.56 343.882 101.16 341.942 101.16C338.222 101.16 335.802 98.82 335.802 95.62C335.802 92.4 338.262 90.08 341.542 90.08C344.702 90.08 347.142 92.2 347.142 95.66ZM341.562 92.44C340.142 92.44 339.122 93.3 338.902 94.68H344.202C343.982 93.32 342.962 92.44 341.562 92.44ZM365.563 101L364.323 98H357.823L356.583 101H353.263L359.503 87H362.703L368.963 101H365.563ZM358.863 95.54H363.303L361.083 90.18L358.863 95.54ZM373.176 91.66C373.936 90.62 375.216 90.08 376.876 90.08V92.96C376.616 92.94 376.416 92.92 376.176 92.92C374.456 92.92 373.316 93.86 373.316 95.92V101H370.196V90.24H373.176V91.66ZM385.202 98.28L386.042 100.48C385.402 100.94 384.462 101.16 383.502 101.16C380.962 101.16 379.482 99.86 379.482 97.3V92.88H377.822V90.48H379.482V87.86H382.602V90.48H385.282V92.88H382.602V97.26C382.602 98.18 383.102 98.68 383.942 98.68C384.402 98.68 384.862 98.54 385.202 98.28ZM398.001 95.66C398.001 95.9 397.961 96.24 397.941 96.5H389.801C390.101 97.84 391.241 98.66 392.881 98.66C394.021 98.66 394.841 98.32 395.581 97.62L397.241 99.42C396.241 100.56 394.741 101.16 392.801 101.16C389.081 101.16 386.661 98.82 386.661 95.62C386.661 92.4 389.121 90.08 392.401 90.08C395.561 90.08 398.001 92.2 398.001 95.66ZM392.421 92.44C391.001 92.44 389.981 93.3 389.761 94.68H395.061C394.841 93.32 393.821 92.44 392.421 92.44Z" fill="#F7A534"/>
<path d="M827 195H517V305H827V195Z" stroke="#003F3F" stroke-miterlimit="10"/>
<path d="M827 145H517V195H827V145Z" fill="#F7A534" stroke="#F7A534" stroke-width="0.75" stroke-miterlimit="10"/>
<path d="M591.894 248V234H598.254C602.834 234 605.974 236.76 605.974 241C605.974 245.24 602.834 248 598.254 248H591.894ZM595.134 245.34H598.094C600.874 245.34 602.694 243.68 602.694 241C602.694 238.32 600.874 236.66 598.094 236.66H595.134V245.34ZM618.738 242.66C618.738 242.9 618.698 243.24 618.678 243.5H610.538C610.838 244.84 611.978 245.66 613.618 245.66C614.758 245.66 615.578 245.32 616.318 244.62L617.978 246.42C616.978 247.56 615.478 248.16 613.538 248.16C609.818 248.16 607.398 245.82 607.398 242.62C607.398 239.4 609.858 237.08 613.138 237.08C616.298 237.08 618.738 239.2 618.738 242.66ZM613.158 239.44C611.738 239.44 610.718 240.3 610.498 241.68H615.798C615.578 240.32 614.558 239.44 613.158 239.44ZM625.179 234H631.219V248H627.979V236.6H625.179V234ZM638.451 239.26C642.591 239.26 644.231 241.12 644.231 243.6C644.231 246.08 642.411 248.24 638.411 248.24C636.471 248.24 634.431 247.7 633.071 246.74L634.351 244.26C635.411 245.06 636.871 245.52 638.331 245.52C639.951 245.52 640.951 244.84 640.951 243.7C640.951 242.6 640.231 241.88 637.691 241.88H634.111L634.831 234H643.371V236.6H637.531L637.311 239.26H638.451ZM659.71 233.16H662.83V248H659.85V246.76C659.07 247.7 657.93 248.16 656.49 248.16C653.45 248.16 651.11 246 651.11 242.62C651.11 239.24 653.45 237.08 656.49 237.08C657.81 237.08 658.93 237.5 659.71 238.38V233.16ZM657.03 245.6C658.57 245.6 659.77 244.48 659.77 242.62C659.77 240.76 658.57 239.64 657.03 239.64C655.47 239.64 654.27 240.76 654.27 242.62C654.27 244.48 655.47 245.6 657.03 245.6ZM676.257 242.66C676.257 242.9 676.217 243.24 676.197 243.5H668.057C668.357 244.84 669.497 245.66 671.137 245.66C672.277 245.66 673.097 245.32 673.837 244.62L675.497 246.42C674.497 247.56 672.997 248.16 671.057 248.16C667.337 248.16 664.917 245.82 664.917 242.62C664.917 239.4 667.377 237.08 670.657 237.08C673.817 237.08 676.257 239.2 676.257 242.66ZM670.677 239.44C669.257 239.44 668.237 240.3 668.017 241.68H673.317C673.097 240.32 672.077 239.44 670.677 239.44ZM697.779 237.08C700.339 237.08 702.179 238.56 702.179 241.84V248H699.059V242.32C699.059 240.58 698.279 239.78 697.019 239.78C695.619 239.78 694.639 240.68 694.639 242.6V248H691.519V242.32C691.519 240.58 690.779 239.78 689.479 239.78C688.099 239.78 687.119 240.68 687.119 242.6V248H683.999V237.24H686.979V238.48C687.779 237.56 688.979 237.08 690.359 237.08C691.859 237.08 693.139 237.66 693.899 238.84C694.759 237.74 696.159 237.08 697.779 237.08ZM709.315 237.08C712.595 237.08 714.495 238.6 714.495 241.86V248H711.575V246.66C710.995 247.64 709.875 248.16 708.295 248.16C705.775 248.16 704.275 246.76 704.275 244.9C704.275 243 705.615 241.68 708.895 241.68H711.375C711.375 240.34 710.575 239.56 708.895 239.56C707.755 239.56 706.575 239.94 705.795 240.56L704.675 238.38C705.855 237.54 707.595 237.08 709.315 237.08ZM709.075 246.06C710.115 246.06 711.015 245.58 711.375 244.6V243.5H709.235C707.775 243.5 707.315 244.04 707.315 244.76C707.315 245.54 707.975 246.06 709.075 246.06ZM720.299 238.66C721.059 237.62 722.339 237.08 723.999 237.08V239.96C723.739 239.94 723.539 239.92 723.299 239.92C721.579 239.92 720.439 240.86 720.439 242.92V248H717.319V237.24H720.299V238.66ZM730.936 245.6C731.916 245.6 732.776 245.16 733.356 244.12L735.776 245.44C735.036 247.1 733.356 248.08 731.216 248.16L731.016 249C732.236 249.14 732.756 249.84 732.756 250.66C732.756 251.88 731.596 252.64 729.816 252.64C729.116 252.64 728.416 252.48 727.956 252.22L728.436 250.88C728.816 251.06 729.256 251.18 729.736 251.18C730.476 251.18 730.776 250.92 730.776 250.54C730.776 250.2 730.496 249.96 729.796 249.96H729.116L729.596 248.04C726.816 247.52 724.956 245.42 724.956 242.62C724.956 239.38 727.456 237.08 730.956 237.08C733.216 237.08 734.996 238.06 735.776 239.82L733.356 241.12C732.776 240.1 731.916 239.64 730.936 239.64C729.356 239.64 728.116 240.74 728.116 242.62C728.116 244.5 729.356 245.6 730.936 245.6ZM742.556 248.16C739.136 248.16 736.636 245.86 736.636 242.62C736.636 239.38 739.136 237.08 742.556 237.08C745.976 237.08 748.456 239.38 748.456 242.62C748.456 245.86 745.976 248.16 742.556 248.16ZM742.556 245.6C744.116 245.6 745.296 244.48 745.296 242.62C745.296 240.76 744.116 239.64 742.556 239.64C740.996 239.64 739.796 240.76 739.796 242.62C739.796 244.48 740.996 245.6 742.556 245.6ZM570.975 261.08C574.255 261.08 576.155 262.6 576.155 265.86V272H573.235V270.66C572.655 271.64 571.535 272.16 569.955 272.16C567.435 272.16 565.935 270.76 565.935 268.9C565.935 267 567.275 265.68 570.555 265.68H573.035C573.035 264.34 572.235 263.56 570.555 263.56C569.415 263.56 568.235 263.94 567.455 264.56L566.335 262.38C567.515 261.54 569.255 261.08 570.975 261.08ZM570.735 270.06C571.775 270.06 572.675 269.58 573.035 268.6V267.5H570.895C569.435 267.5 568.975 268.04 568.975 268.76C568.975 269.54 569.635 270.06 570.735 270.06ZM583.723 258H594.943V260.1L589.743 272H586.223L591.243 260.64H586.603V262.92H583.723V258ZM610.55 257.16H613.67V272H610.69V270.76C609.91 271.7 608.77 272.16 607.33 272.16C604.29 272.16 601.95 270 601.95 266.62C601.95 263.24 604.29 261.08 607.33 261.08C608.65 261.08 609.77 261.5 610.55 262.38V257.16ZM607.87 269.6C609.41 269.6 610.61 268.48 610.61 266.62C610.61 264.76 609.41 263.64 607.87 263.64C606.31 263.64 605.11 264.76 605.11 266.62C605.11 268.48 606.31 269.6 607.87 269.6ZM627.097 266.66C627.097 266.9 627.057 267.24 627.037 267.5H618.897C619.197 268.84 620.337 269.66 621.977 269.66C623.117 269.66 623.937 269.32 624.677 268.62L626.337 270.42C625.337 271.56 623.837 272.16 621.897 272.16C618.177 272.16 615.757 269.82 615.757 266.62C615.757 263.4 618.217 261.08 621.497 261.08C624.657 261.08 627.097 263.2 627.097 266.66ZM621.517 263.44C620.097 263.44 619.077 264.3 618.857 265.68H624.157C623.937 264.32 622.917 263.44 621.517 263.44ZM639.178 261.08C642.458 261.08 644.358 262.6 644.358 265.86V272H641.438V270.66C640.858 271.64 639.738 272.16 638.158 272.16C635.638 272.16 634.138 270.76 634.138 268.9C634.138 267 635.478 265.68 638.758 265.68H641.238C641.238 264.34 640.438 263.56 638.758 263.56C637.618 263.56 636.438 263.94 635.658 264.56L634.538 262.38C635.718 261.54 637.458 261.08 639.178 261.08ZM638.938 270.06C639.978 270.06 640.878 269.58 641.238 268.6V267.5H639.098C637.638 267.5 637.178 268.04 637.178 268.76C637.178 269.54 637.838 270.06 638.938 270.06ZM653.542 261.08C656.562 261.08 658.902 263.24 658.902 266.62C658.902 270 656.562 272.16 653.542 272.16C652.102 272.16 650.942 271.7 650.162 270.76V272H647.182V257.16H650.302V262.38C651.102 261.5 652.202 261.08 653.542 261.08ZM653.002 269.6C654.562 269.6 655.742 268.48 655.742 266.62C655.742 264.76 654.562 263.64 653.002 263.64C651.442 263.64 650.262 264.76 650.262 266.62C650.262 268.48 651.442 269.6 653.002 269.6ZM663.971 262.66C664.731 261.62 666.011 261.08 667.671 261.08V263.96C667.411 263.94 667.211 263.92 666.971 263.92C665.251 263.92 664.111 264.86 664.111 266.92V272H660.991V261.24H663.971V262.66ZM671.086 259.74C669.926 259.74 669.146 258.98 669.146 258C669.146 257.02 669.926 256.26 671.086 256.26C672.246 256.26 673.026 256.98 673.026 257.94C673.026 258.98 672.246 259.74 671.086 259.74ZM669.526 272V261.24H672.646V272H669.526ZM675.542 272V257.16H678.662V272H675.542ZM695.061 257.16H698.181V272H695.201V270.76C694.421 271.7 693.281 272.16 691.841 272.16C688.801 272.16 686.461 270 686.461 266.62C686.461 263.24 688.801 261.08 691.841 261.08C693.161 261.08 694.281 261.5 695.061 262.38V257.16ZM692.381 269.6C693.921 269.6 695.121 268.48 695.121 266.62C695.121 264.76 693.921 263.64 692.381 263.64C690.821 263.64 689.621 264.76 689.621 266.62C689.621 268.48 690.821 269.6 692.381 269.6ZM711.609 266.66C711.609 266.9 711.569 267.24 711.549 267.5H703.409C703.709 268.84 704.849 269.66 706.489 269.66C707.629 269.66 708.449 269.32 709.189 268.62L710.849 270.42C709.849 271.56 708.349 272.16 706.409 272.16C702.689 272.16 700.269 269.82 700.269 266.62C700.269 263.4 702.729 261.08 706.009 261.08C709.169 261.08 711.609 263.2 711.609 266.66ZM706.029 263.44C704.609 263.44 703.589 264.3 703.369 265.68H708.669C708.449 264.32 707.429 263.44 706.029 263.44ZM723.13 269.36H729.15V272H718.57V269.9L723.97 264.8C725.21 263.62 725.43 262.9 725.43 262.22C725.43 261.12 724.67 260.48 723.19 260.48C721.99 260.48 720.97 260.94 720.29 261.88L717.93 260.36C719.01 258.78 720.97 257.76 723.49 257.76C726.61 257.76 728.69 259.36 728.69 261.9C728.69 263.26 728.31 264.5 726.35 266.32L723.13 269.36ZM736.448 272.24C733.008 272.24 730.448 269.62 730.448 265C730.448 260.38 733.008 257.76 736.448 257.76C739.908 257.76 742.448 260.38 742.448 265C742.448 269.62 739.908 272.24 736.448 272.24ZM736.448 269.5C738.068 269.5 739.188 268.18 739.188 265C739.188 261.82 738.068 260.5 736.448 260.5C734.848 260.5 733.728 261.82 733.728 265C733.728 268.18 734.848 269.5 736.448 269.5ZM748.345 269.36H754.365V272H743.785V269.9L749.185 264.8C750.425 263.62 750.645 262.9 750.645 262.22C750.645 261.12 749.885 260.48 748.405 260.48C747.205 260.48 746.185 260.94 745.505 261.88L743.145 260.36C744.225 258.78 746.185 257.76 748.705 257.76C751.825 257.76 753.905 259.36 753.905 261.9C753.905 263.26 753.525 264.5 751.565 266.32L748.345 269.36ZM768.327 266.42V269.06H766.047V272H762.887V269.06H755.347V266.88L761.947 258H765.347L759.227 266.42H762.987V263.8H766.047V266.42H768.327ZM771.526 272.16C770.446 272.16 769.586 271.34 769.586 270.2C769.586 269.04 770.446 268.28 771.526 268.28C772.606 268.28 773.466 269.04 773.466 270.2C773.466 271.34 772.606 272.16 771.526 272.16Z" fill="#003F3F"/>
<path d="M547.071 175.24C542.651 175.24 539.411 172.16 539.411 168C539.411 163.84 542.651 160.76 547.071 160.76C551.471 160.76 554.731 163.82 554.731 168C554.731 172.18 551.471 175.24 547.071 175.24ZM547.071 172.48C549.571 172.48 551.451 170.66 551.451 168C551.451 165.34 549.571 163.52 547.071 163.52C544.571 163.52 542.691 165.34 542.691 168C542.691 170.66 544.571 172.48 547.071 172.48ZM578.61 175H575.57L575.55 166.6L571.43 173.52H569.97L565.87 166.78V175H562.83V161H565.51L570.75 169.7L575.91 161H578.57L578.61 175ZM592.251 169.66C592.251 169.9 592.211 170.24 592.191 170.5H584.051C584.351 171.84 585.491 172.66 587.131 172.66C588.271 172.66 589.091 172.32 589.831 171.62L591.491 173.42C590.491 174.56 588.991 175.16 587.051 175.16C583.331 175.16 580.911 172.82 580.911 169.62C580.911 166.4 583.371 164.08 586.651 164.08C589.811 164.08 592.251 166.2 592.251 169.66ZM586.671 166.44C585.251 166.44 584.231 167.3 584.011 168.68H589.311C589.091 167.32 588.071 166.44 586.671 166.44ZM597.309 165.66C598.069 164.62 599.349 164.08 601.009 164.08V166.96C600.749 166.94 600.549 166.92 600.309 166.92C598.589 166.92 597.449 167.86 597.449 169.92V175H594.329V164.24H597.309V165.66ZM607.966 175.16C604.466 175.16 601.966 172.86 601.966 169.62C601.966 166.38 604.466 164.08 607.966 164.08C610.226 164.08 612.006 165.06 612.786 166.82L610.366 168.12C609.786 167.1 608.926 166.64 607.946 166.64C606.366 166.64 605.126 167.74 605.126 169.62C605.126 171.5 606.366 172.6 607.946 172.6C608.926 172.6 609.786 172.16 610.366 171.12L612.786 172.44C612.006 174.16 610.226 175.16 607.966 175.16ZM618.923 164.08C622.203 164.08 624.103 165.6 624.103 168.86V175H621.183V173.66C620.603 174.64 619.483 175.16 617.903 175.16C615.383 175.16 613.883 173.76 613.883 171.9C613.883 170 615.223 168.68 618.503 168.68H620.983C620.983 167.34 620.183 166.56 618.503 166.56C617.363 166.56 616.183 166.94 615.403 167.56L614.283 165.38C615.463 164.54 617.203 164.08 618.923 164.08ZM618.683 173.06C619.723 173.06 620.623 172.58 620.983 171.6V170.5H618.843C617.383 170.5 616.923 171.04 616.923 171.76C616.923 172.54 617.583 173.06 618.683 173.06ZM634.884 160.16H638.004V175H635.024V173.76C634.244 174.7 633.104 175.16 631.664 175.16C628.624 175.16 626.284 173 626.284 169.62C626.284 166.24 628.624 164.08 631.664 164.08C632.984 164.08 634.104 164.5 634.884 165.38V160.16ZM632.204 172.6C633.744 172.6 634.944 171.48 634.944 169.62C634.944 167.76 633.744 166.64 632.204 166.64C630.644 166.64 629.444 167.76 629.444 169.62C629.444 171.48 630.644 172.6 632.204 172.6ZM646.011 175.16C642.591 175.16 640.091 172.86 640.091 169.62C640.091 166.38 642.591 164.08 646.011 164.08C649.431 164.08 651.911 166.38 651.911 169.62C651.911 172.86 649.431 175.16 646.011 175.16ZM646.011 172.6C647.571 172.6 648.751 171.48 648.751 169.62C648.751 167.76 647.571 166.64 646.011 166.64C644.451 166.64 643.251 167.76 643.251 169.62C643.251 171.48 644.451 172.6 646.011 172.6ZM667.501 160.16H670.621V175H667.641V173.76C666.861 174.7 665.721 175.16 664.281 175.16C661.241 175.16 658.901 173 658.901 169.62C658.901 166.24 661.241 164.08 664.281 164.08C665.601 164.08 666.721 164.5 667.501 165.38V160.16ZM664.821 172.6C666.361 172.6 667.561 171.48 667.561 169.62C667.561 167.76 666.361 166.64 664.821 166.64C663.261 166.64 662.061 167.76 662.061 169.62C662.061 171.48 663.261 172.6 664.821 172.6ZM684.048 169.66C684.048 169.9 684.008 170.24 683.988 170.5H675.848C676.148 171.84 677.288 172.66 678.928 172.66C680.068 172.66 680.888 172.32 681.628 171.62L683.288 173.42C682.288 174.56 680.788 175.16 678.848 175.16C675.128 175.16 672.708 172.82 672.708 169.62C672.708 166.4 675.168 164.08 678.448 164.08C681.608 164.08 684.048 166.2 684.048 169.66ZM678.468 166.44C677.048 166.44 676.028 167.3 675.808 168.68H681.108C680.888 167.32 679.868 166.44 678.468 166.44ZM692.01 175V161H698.37C702.95 161 706.09 163.76 706.09 168C706.09 172.24 702.95 175 698.37 175H692.01ZM695.25 172.34H698.21C700.99 172.34 702.81 170.68 702.81 168C702.81 165.32 700.99 163.66 698.21 163.66H695.25V172.34ZM718.853 169.66C718.853 169.9 718.813 170.24 718.793 170.5H710.653C710.953 171.84 712.093 172.66 713.733 172.66C714.873 172.66 715.693 172.32 716.433 171.62L718.093 173.42C717.093 174.56 715.593 175.16 713.653 175.16C709.933 175.16 707.513 172.82 707.513 169.62C707.513 166.4 709.973 164.08 713.253 164.08C716.413 164.08 718.853 166.2 718.853 169.66ZM713.273 166.44C711.853 166.44 710.833 167.3 710.613 168.68H715.913C715.693 167.32 714.673 166.44 713.273 166.44ZM720.93 175V160.16H724.05V175H720.93ZM728.506 162.74C727.346 162.74 726.566 161.98 726.566 161C726.566 160.02 727.346 159.26 728.506 159.26C729.666 159.26 730.446 159.98 730.446 160.94C730.446 161.98 729.666 162.74 728.506 162.74ZM726.946 175V164.24H730.066V175H726.946ZM738.161 175.16C734.661 175.16 732.161 172.86 732.161 169.62C732.161 166.38 734.661 164.08 738.161 164.08C740.421 164.08 742.201 165.06 742.981 166.82L740.561 168.12C739.981 167.1 739.121 166.64 738.141 166.64C736.561 166.64 735.321 167.74 735.321 169.62C735.321 171.5 736.561 172.6 738.141 172.6C739.121 172.6 739.981 172.16 740.561 171.12L742.981 172.44C742.201 174.16 740.421 175.16 738.161 175.16ZM749.118 164.08C752.398 164.08 754.298 165.6 754.298 168.86V175H751.378V173.66C750.798 174.64 749.678 175.16 748.098 175.16C745.578 175.16 744.078 173.76 744.078 171.9C744.078 170 745.418 168.68 748.698 168.68H751.178C751.178 167.34 750.378 166.56 748.698 166.56C747.558 166.56 746.378 166.94 745.598 167.56L744.478 165.38C745.658 164.54 747.398 164.08 749.118 164.08ZM748.878 173.06C749.918 173.06 750.818 172.58 751.178 171.6V170.5H749.038C747.578 170.5 747.118 171.04 747.118 171.76C747.118 172.54 747.778 173.06 748.878 173.06ZM765.079 160.16H768.199V175H765.219V173.76C764.439 174.7 763.299 175.16 761.859 175.16C758.819 175.16 756.479 173 756.479 169.62C756.479 166.24 758.819 164.08 761.859 164.08C763.179 164.08 764.299 164.5 765.079 165.38V160.16ZM762.399 172.6C763.939 172.6 765.139 171.48 765.139 169.62C765.139 167.76 763.939 166.64 762.399 166.64C760.839 166.64 759.639 167.76 759.639 169.62C759.639 171.48 760.839 172.6 762.399 172.6ZM781.626 169.66C781.626 169.9 781.586 170.24 781.566 170.5H773.426C773.726 171.84 774.866 172.66 776.506 172.66C777.646 172.66 778.466 172.32 779.206 171.62L780.866 173.42C779.866 174.56 778.366 175.16 776.426 175.16C772.706 175.16 770.286 172.82 770.286 169.62C770.286 166.4 772.746 164.08 776.026 164.08C779.186 164.08 781.626 166.2 781.626 169.66ZM776.046 166.44C774.626 166.44 773.606 167.3 773.386 168.68H778.686C778.466 167.32 777.446 166.44 776.046 166.44ZM786.806 172.6H792.466V175H782.866V173.12L788.346 166.64H783.006V164.24H792.286V166.12L786.806 172.6ZM798.805 164.08C802.085 164.08 803.985 165.6 803.985 168.86V175H801.065V173.66C800.485 174.64 799.365 175.16 797.785 175.16C795.265 175.16 793.765 173.76 793.765 171.9C793.765 170 795.105 168.68 798.385 168.68H800.865C800.865 167.34 800.065 166.56 798.385 166.56C797.245 166.56 796.065 166.94 795.285 167.56L794.165 165.38C795.345 164.54 797.085 164.08 798.805 164.08ZM798.565 173.06C799.605 173.06 800.505 172.58 800.865 171.6V170.5H798.725C797.265 170.5 796.805 171.04 796.805 171.76C796.805 172.54 797.465 173.06 798.565 173.06Z" fill="#003F3F"/>
<path d="M1235 229H925V278.689H1235V229Z" fill="#003F3F" stroke="#003F3F" stroke-miterlimit="10"/>
<path d="M1235 279.683H925V389H1235V279.683Z" stroke="#F7A534" stroke-miterlimit="10"/>
<path d="M998.547 332.472V318.472H1004.91C1009.49 318.472 1012.63 321.232 1012.63 325.472C1012.63 329.712 1009.49 332.472 1004.91 332.472H998.547ZM1001.79 329.812H1004.75C1007.53 329.812 1009.35 328.152 1009.35 325.472C1009.35 322.792 1007.53 321.132 1004.75 321.132H1001.79V329.812ZM1025.39 327.132C1025.39 327.372 1025.35 327.712 1025.33 327.972H1017.19C1017.49 329.312 1018.63 330.132 1020.27 330.132C1021.41 330.132 1022.23 329.792 1022.97 329.092L1024.63 330.892C1023.63 332.032 1022.13 332.632 1020.19 332.632C1016.47 332.632 1014.05 330.292 1014.05 327.092C1014.05 323.872 1016.51 321.552 1019.79 321.552C1022.95 321.552 1025.39 323.672 1025.39 327.132ZM1019.81 323.912C1018.39 323.912 1017.37 324.772 1017.15 326.152H1022.45C1022.23 324.792 1021.21 323.912 1019.81 323.912ZM1039.01 324.172C1041.53 324.572 1042.81 326.132 1042.81 328.192C1042.81 330.552 1040.99 332.712 1037.01 332.712C1035.05 332.712 1033.03 332.172 1031.67 331.212L1032.93 328.732C1033.99 329.532 1035.47 329.992 1036.93 329.992C1038.55 329.992 1039.55 329.332 1039.55 328.192C1039.55 327.132 1038.77 326.472 1036.93 326.472H1035.45V324.332L1038.33 321.072H1032.37V318.472H1042.17V320.572L1039.01 324.172ZM1054.97 321.552C1058.25 321.552 1060.15 323.072 1060.15 326.332V332.472H1057.23V331.132C1056.65 332.112 1055.53 332.632 1053.95 332.632C1051.43 332.632 1049.93 331.232 1049.93 329.372C1049.93 327.472 1051.27 326.152 1054.55 326.152H1057.03C1057.03 324.812 1056.23 324.032 1054.55 324.032C1053.41 324.032 1052.23 324.412 1051.45 325.032L1050.33 322.852C1051.51 322.012 1053.25 321.552 1054.97 321.552ZM1054.73 330.532C1055.77 330.532 1056.67 330.052 1057.03 329.072V327.972H1054.89C1053.43 327.972 1052.97 328.512 1052.97 329.232C1052.97 330.012 1053.63 330.532 1054.73 330.532ZM1067.72 318.472H1078.94V320.572L1073.74 332.472H1070.22L1075.24 321.112H1070.6V323.392H1067.72V318.472ZM1094.55 317.632H1097.67V332.472H1094.69V331.232C1093.91 332.172 1092.77 332.632 1091.33 332.632C1088.29 332.632 1085.95 330.472 1085.95 327.092C1085.95 323.712 1088.29 321.552 1091.33 321.552C1092.65 321.552 1093.77 321.972 1094.55 322.852V317.632ZM1091.87 330.072C1093.41 330.072 1094.61 328.952 1094.61 327.092C1094.61 325.232 1093.41 324.112 1091.87 324.112C1090.31 324.112 1089.11 325.232 1089.11 327.092C1089.11 328.952 1090.31 330.072 1091.87 330.072ZM1111.09 327.132C1111.09 327.372 1111.05 327.712 1111.03 327.972H1102.89C1103.19 329.312 1104.33 330.132 1105.97 330.132C1107.11 330.132 1107.93 329.792 1108.67 329.092L1110.33 330.892C1109.33 332.032 1107.83 332.632 1105.89 332.632C1102.17 332.632 1099.75 330.292 1099.75 327.092C1099.75 323.872 1102.21 321.552 1105.49 321.552C1108.65 321.552 1111.09 323.672 1111.09 327.132ZM1105.51 323.912C1104.09 323.912 1103.07 324.772 1102.85 326.152H1108.15C1107.93 324.792 1106.91 323.912 1105.51 323.912ZM1123.17 321.552C1126.45 321.552 1128.35 323.072 1128.35 326.332V332.472H1125.43V331.132C1124.85 332.112 1123.73 332.632 1122.15 332.632C1119.63 332.632 1118.13 331.232 1118.13 329.372C1118.13 327.472 1119.47 326.152 1122.75 326.152H1125.23C1125.23 324.812 1124.43 324.032 1122.75 324.032C1121.61 324.032 1120.43 324.412 1119.65 325.032L1118.53 322.852C1119.71 322.012 1121.45 321.552 1123.17 321.552ZM1122.93 330.532C1123.97 330.532 1124.87 330.052 1125.23 329.072V327.972H1123.09C1121.63 327.972 1121.17 328.512 1121.17 329.232C1121.17 330.012 1121.83 330.532 1122.93 330.532ZM1137.54 321.552C1140.56 321.552 1142.9 323.712 1142.9 327.092C1142.9 330.472 1140.56 332.632 1137.54 332.632C1136.1 332.632 1134.94 332.172 1134.16 331.232V332.472H1131.18V317.632H1134.3V322.852C1135.1 321.972 1136.2 321.552 1137.54 321.552ZM1137 330.072C1138.56 330.072 1139.74 328.952 1139.74 327.092C1139.74 325.232 1138.56 324.112 1137 324.112C1135.44 324.112 1134.26 325.232 1134.26 327.092C1134.26 328.952 1135.44 330.072 1137 330.072ZM1147.97 323.132C1148.73 322.092 1150.01 321.552 1151.67 321.552V324.432C1151.41 324.412 1151.21 324.392 1150.97 324.392C1149.25 324.392 1148.11 325.332 1148.11 327.392V332.472H1144.99V321.712H1147.97V323.132ZM1155.08 320.212C1153.92 320.212 1153.14 319.452 1153.14 318.472C1153.14 317.492 1153.92 316.732 1155.08 316.732C1156.24 316.732 1157.02 317.452 1157.02 318.412C1157.02 319.452 1156.24 320.212 1155.08 320.212ZM1153.52 332.472V321.712H1156.64V332.472H1153.52ZM1159.54 332.472V317.632H1162.66V332.472H1159.54ZM1045.6 341.632H1048.72V356.472H1045.74V355.232C1044.96 356.172 1043.82 356.632 1042.38 356.632C1039.34 356.632 1037 354.472 1037 351.092C1037 347.712 1039.34 345.552 1042.38 345.552C1043.7 345.552 1044.82 345.972 1045.6 346.852V341.632ZM1042.92 354.072C1044.46 354.072 1045.66 352.952 1045.66 351.092C1045.66 349.232 1044.46 348.112 1042.92 348.112C1041.36 348.112 1040.16 349.232 1040.16 351.092C1040.16 352.952 1041.36 354.072 1042.92 354.072ZM1062.15 351.132C1062.15 351.372 1062.11 351.712 1062.09 351.972H1053.95C1054.25 353.312 1055.39 354.132 1057.03 354.132C1058.17 354.132 1058.99 353.792 1059.73 353.092L1061.39 354.892C1060.39 356.032 1058.89 356.632 1056.95 356.632C1053.23 356.632 1050.81 354.292 1050.81 351.092C1050.81 347.872 1053.27 345.552 1056.55 345.552C1059.71 345.552 1062.15 347.672 1062.15 351.132ZM1056.57 347.912C1055.15 347.912 1054.13 348.772 1053.91 350.152H1059.21C1058.99 348.792 1057.97 347.912 1056.57 347.912ZM1073.67 353.832H1079.69V356.472H1069.11V354.372L1074.51 349.272C1075.75 348.092 1075.97 347.372 1075.97 346.692C1075.97 345.592 1075.21 344.952 1073.73 344.952C1072.53 344.952 1071.51 345.412 1070.83 346.352L1068.47 344.832C1069.55 343.252 1071.51 342.232 1074.03 342.232C1077.15 342.232 1079.23 343.832 1079.23 346.372C1079.23 347.732 1078.85 348.972 1076.89 350.792L1073.67 353.832ZM1086.99 356.712C1083.55 356.712 1080.99 354.092 1080.99 349.472C1080.99 344.852 1083.55 342.232 1086.99 342.232C1090.45 342.232 1092.99 344.852 1092.99 349.472C1092.99 354.092 1090.45 356.712 1086.99 356.712ZM1086.99 353.972C1088.61 353.972 1089.73 352.652 1089.73 349.472C1089.73 346.292 1088.61 344.972 1086.99 344.972C1085.39 344.972 1084.27 346.292 1084.27 349.472C1084.27 352.652 1085.39 353.972 1086.99 353.972ZM1098.88 353.832H1104.9V356.472H1094.32V354.372L1099.72 349.272C1100.96 348.092 1101.18 347.372 1101.18 346.692C1101.18 345.592 1100.42 344.952 1098.94 344.952C1097.74 344.952 1096.72 345.412 1096.04 346.352L1093.68 344.832C1094.76 343.252 1096.72 342.232 1099.24 342.232C1102.36 342.232 1104.44 343.832 1104.44 346.372C1104.44 347.732 1104.06 348.972 1102.1 350.792L1098.88 353.832ZM1118.87 350.892V353.532H1116.59V356.472H1113.43V353.532H1105.89V351.352L1112.49 342.472H1115.89L1109.77 350.892H1113.53V348.272H1116.59V350.892H1118.87ZM1122.07 356.632C1120.99 356.632 1120.13 355.812 1120.13 354.672C1120.13 353.512 1120.99 352.752 1122.07 352.752C1123.15 352.752 1124.01 353.512 1124.01 354.672C1124.01 355.812 1123.15 356.632 1122.07 356.632Z" fill="#003F3F"/>
<path d="M956.023 256.332H963.643V258.932H952.803V244.932H963.383V247.532H956.023V250.572H962.523V253.092H956.023V256.332ZM973.583 248.172H976.583L972.043 258.932H968.823L964.303 248.172H967.523L970.503 255.492L973.583 248.172ZM988.103 253.592C988.103 253.832 988.063 254.172 988.043 254.432H979.903C980.203 255.772 981.343 256.592 982.983 256.592C984.123 256.592 984.943 256.252 985.683 255.552L987.343 257.352C986.343 258.492 984.843 259.092 982.903 259.092C979.183 259.092 976.763 256.752 976.763 253.552C976.763 250.332 979.223 248.012 982.503 248.012C985.663 248.012 988.103 250.132 988.103 253.592ZM982.523 250.372C981.103 250.372 980.083 251.232 979.863 252.612H985.163C984.943 251.252 983.923 250.372 982.523 250.372ZM996.72 248.012C999.26 248.012 1001.18 249.492 1001.18 252.772V258.932H998.06V253.252C998.06 251.512 997.26 250.712 995.88 250.712C994.38 250.712 993.3 251.632 993.3 253.612V258.932H990.18V248.172H993.16V249.432C994 248.512 995.26 248.012 996.72 248.012ZM1010.11 256.212L1010.95 258.412C1010.31 258.872 1009.37 259.092 1008.41 259.092C1005.87 259.092 1004.39 257.792 1004.39 255.232V250.812H1002.73V248.412H1004.39V245.792H1007.51V248.412H1010.19V250.812H1007.51V255.192C1007.51 256.112 1008.01 256.612 1008.85 256.612C1009.31 256.612 1009.77 256.472 1010.11 256.212ZM1017.49 259.092C1014.07 259.092 1011.57 256.792 1011.57 253.552C1011.57 250.312 1014.07 248.012 1017.49 248.012C1020.91 248.012 1023.39 250.312 1023.39 253.552C1023.39 256.792 1020.91 259.092 1017.49 259.092ZM1017.49 256.532C1019.05 256.532 1020.23 255.412 1020.23 253.552C1020.23 251.692 1019.05 250.572 1017.49 250.572C1015.93 250.572 1014.73 251.692 1014.73 253.552C1014.73 255.412 1015.93 256.532 1017.49 256.532ZM1038.98 244.092H1042.1V258.932H1039.12V257.692C1038.34 258.632 1037.2 259.092 1035.76 259.092C1032.72 259.092 1030.38 256.932 1030.38 253.552C1030.38 250.172 1032.72 248.012 1035.76 248.012C1037.08 248.012 1038.2 248.432 1038.98 249.312V244.092ZM1036.3 256.532C1037.84 256.532 1039.04 255.412 1039.04 253.552C1039.04 251.692 1037.84 250.572 1036.3 250.572C1034.74 250.572 1033.54 251.692 1033.54 253.552C1033.54 255.412 1034.74 256.532 1036.3 256.532ZM1049.32 248.012C1052.6 248.012 1054.5 249.532 1054.5 252.792V258.932H1051.58V257.592C1051 258.572 1049.88 259.092 1048.3 259.092C1045.78 259.092 1044.28 257.692 1044.28 255.832C1044.28 253.932 1045.62 252.612 1048.9 252.612H1051.38C1051.38 251.272 1050.58 250.492 1048.9 250.492C1047.76 250.492 1046.58 250.872 1045.8 251.492L1044.68 249.312C1045.86 248.472 1047.6 248.012 1049.32 248.012ZM1049.08 256.992C1050.12 256.992 1051.02 256.512 1051.38 255.532V254.432H1049.24C1047.78 254.432 1047.32 254.972 1047.32 255.692C1047.32 256.472 1047.98 256.992 1049.08 256.992ZM1073.67 258.932L1072.43 255.932H1065.93L1064.69 258.932H1061.37L1067.61 244.932H1070.81L1077.07 258.932H1073.67ZM1066.97 253.472H1071.41L1069.19 248.112L1066.97 253.472ZM1081.29 249.592C1082.05 248.552 1083.33 248.012 1084.99 248.012V250.892C1084.73 250.872 1084.53 250.852 1084.29 250.852C1082.57 250.852 1081.43 251.792 1081.43 253.852V258.932H1078.31V248.172H1081.29V249.592ZM1093.31 256.212L1094.15 258.412C1093.51 258.872 1092.57 259.092 1091.61 259.092C1089.07 259.092 1087.59 257.792 1087.59 255.232V250.812H1085.93V248.412H1087.59V245.792H1090.71V248.412H1093.39V250.812H1090.71V255.192C1090.71 256.112 1091.21 256.612 1092.05 256.612C1092.51 256.612 1092.97 256.472 1093.31 256.212ZM1106.11 253.592C1106.11 253.832 1106.07 254.172 1106.05 254.432H1097.91C1098.21 255.772 1099.35 256.592 1100.99 256.592C1102.13 256.592 1102.95 256.252 1103.69 255.552L1105.35 257.352C1104.35 258.492 1102.85 259.092 1100.91 259.092C1097.19 259.092 1094.77 256.752 1094.77 253.552C1094.77 250.332 1097.23 248.012 1100.51 248.012C1103.67 248.012 1106.11 250.132 1106.11 253.592ZM1100.53 250.372C1099.11 250.372 1098.09 251.232 1097.87 252.612H1103.17C1102.95 251.252 1101.93 250.372 1100.53 250.372ZM1124.39 253.592C1124.39 253.832 1124.35 254.172 1124.33 254.432H1116.19C1116.49 255.772 1117.63 256.592 1119.27 256.592C1120.41 256.592 1121.23 256.252 1121.97 255.552L1123.63 257.352C1122.63 258.492 1121.13 259.092 1119.19 259.092C1115.47 259.092 1113.05 256.752 1113.05 253.552C1113.05 250.332 1115.51 248.012 1118.79 248.012C1121.95 248.012 1124.39 250.132 1124.39 253.592ZM1118.81 250.372C1117.39 250.372 1116.37 251.232 1116.15 252.612H1121.45C1121.23 251.252 1120.21 250.372 1118.81 250.372ZM1139.05 259.172C1134.71 259.172 1131.47 256.152 1131.47 251.932C1131.47 247.712 1134.71 244.692 1139.07 244.692C1141.49 244.692 1143.51 245.572 1144.83 247.172L1142.75 249.092C1141.81 248.012 1140.63 247.452 1139.23 247.452C1136.61 247.452 1134.75 249.292 1134.75 251.932C1134.75 254.572 1136.61 256.412 1139.23 256.412C1140.63 256.412 1141.81 255.852 1142.75 254.752L1144.83 256.672C1143.51 258.292 1141.49 259.172 1139.05 259.172ZM1154.25 248.172H1157.37V258.932H1154.41V257.652C1153.59 258.592 1152.39 259.092 1151.07 259.092C1148.37 259.092 1146.47 257.572 1146.47 254.252V248.172H1149.59V253.792C1149.59 255.592 1150.39 256.392 1151.77 256.392C1153.21 256.392 1154.25 255.472 1154.25 253.492V248.172ZM1160.26 258.932V244.092H1163.38V258.932H1160.26ZM1173.16 256.212L1174 258.412C1173.36 258.872 1172.42 259.092 1171.46 259.092C1168.92 259.092 1167.44 257.792 1167.44 255.232V250.812H1165.78V248.412H1167.44V245.792H1170.56V248.412H1173.24V250.812H1170.56V255.192C1170.56 256.112 1171.06 256.612 1171.9 256.612C1172.36 256.612 1172.82 256.472 1173.16 256.212ZM1183.47 248.172H1186.59V258.932H1183.63V257.652C1182.81 258.592 1181.61 259.092 1180.29 259.092C1177.59 259.092 1175.69 257.572 1175.69 254.252V248.172H1178.81V253.792C1178.81 255.592 1179.61 256.392 1180.99 256.392C1182.43 256.392 1183.47 255.472 1183.47 253.492V248.172ZM1192.46 249.592C1193.22 248.552 1194.5 248.012 1196.16 248.012V250.892C1195.9 250.872 1195.7 250.852 1195.46 250.852C1193.74 250.852 1192.6 251.792 1192.6 253.852V258.932H1189.48V248.172H1192.46V249.592ZM1202.29 248.012C1205.57 248.012 1207.47 249.532 1207.47 252.792V258.932H1204.55V257.592C1203.97 258.572 1202.85 259.092 1201.27 259.092C1198.75 259.092 1197.25 257.692 1197.25 255.832C1197.25 253.932 1198.59 252.612 1201.87 252.612H1204.35C1204.35 251.272 1203.55 250.492 1201.87 250.492C1200.73 250.492 1199.55 250.872 1198.77 251.492L1197.65 249.312C1198.83 248.472 1200.57 248.012 1202.29 248.012ZM1202.05 256.992C1203.09 256.992 1203.99 256.512 1204.35 255.532V254.432H1202.21C1200.75 254.432 1200.29 254.972 1200.29 255.692C1200.29 256.472 1200.95 256.992 1202.05 256.992Z" fill="#F7A534"/>
</svg>
